<mxfile host="app.diagrams.net" agent="Mozilla/5.0 (Windows NT 10.0; Win64; x64) AppleWebKit/537.36 (KHTML, like Gecko) Chrome/132.0.0.0 Safari/537.36 OPR/117.0.0.0" version="24.8.3">
  <diagram name="Page-1" id="3Dzzc4pcNshOLnMxgXS7">
    <mxGraphModel dx="1390" dy="757" grid="0" gridSize="10" guides="1" tooltips="1" connect="1" arrows="1" fold="1" page="1" pageScale="1" pageWidth="827" pageHeight="1169" background="none" math="0" shadow="0">
      <root>
        <mxCell id="0" />
        <mxCell id="1" parent="0" />
        <mxCell id="aOcAcyVCXec-WAdpEkdR-7" value="" style="rounded=1;whiteSpace=wrap;html=1;" vertex="1" parent="1">
          <mxGeometry x="414" y="320" width="340" height="200" as="geometry" />
        </mxCell>
        <mxCell id="aOcAcyVCXec-WAdpEkdR-8" value="" style="image;aspect=fixed;html=1;points=[];align=center;fontSize=12;image=img/lib/mscae/Docker.svg;rounded=1;" vertex="1" parent="1">
          <mxGeometry x="640" y="300" width="50" height="41" as="geometry" />
        </mxCell>
        <mxCell id="aOcAcyVCXec-WAdpEkdR-9" value="" style="shape=image;verticalLabelPosition=bottom;labelBackgroundColor=default;verticalAlign=top;aspect=fixed;imageAspect=0;image=data:image/png,iVBORw0KGgoAAAANSUhEUgAABAAAAAFxCAYAAADtW9pAAAAACXBIWXMAAAjbAAAI2wHNrPlDAAAAGXRFWHRTb2Z0d2FyZQB3d3cuaW5rc2NhcGUub3Jnm+48GgAAIABJREFUeJzs3XmclXXd//HX5zoDM4ALCuK+565o7u1ZeVe26F1StmgoOjCDmhTLYMs0dylzRgwLmTOSGlaaSZp2q6n93DK91VxySU1Nc09AwQWYgXOuz++PGU0MheH6nrnOOdf7+XgQEsPn+2Y4MOf6fDdzd0RERERERESktkVpBxARERERERGR8lMDQERERERERCQD1AAQERERERERyQA1AEREREREREQyQA0AERERERERkQxQA0BEREREREQkA9QAEBEREREREckANQBEREREREREMkANABEREREREZEMUANAREREREREJAPUABARERERERHJADUARERERERERDJADQARERERERGRDFADQERERERERCQD1AAQERERERERyQA1AEREREREREQyQA0AERERERERkQxQA0BEREREREQkA9QAEBEREREREckANQBEREREREREMkANABEREREREZEMUANAREREREREJAPUABARERERERHJADUARERERERERDJADQARERERERGRDFADQERERERERCQD1AAQERERERERyQA1AEREREREREQyQA0AERERERERkQxQA0BEREREREQkA9QAEBEREREREckANQBEREREREREMkANABEREREREZEMUANAREREREREJAPUABARERERERHJADUARERERERERDJADQARERERERGRDFADQERERERERCQD1AAQERERERERyQA1AEREREREREQyQA0AERERERERkQxQA0BEREREREQkA9QAEBEREREREckANQBEREREREREMkANABEREREREZEMUANAREREREREJAPUABARERERERHJADUARERERERERDJADQARERERERGRDFADQERERERERCQD1AAQERERERERyQA1AEREREREREQyQA0AERERERERkQxQA0BEREREREQkA9QAEBEREREREckANQBEREREREREMkANABEREREREZEMUANAREREREREJAPUABARERERERHJADUARERERERERDJADQARERERERGRDFADQERERERERCQD1AAQERERERERyQA1AEREREREREQyQA0AERERERERkQxQA0BEREREREQkA9QAEBEREREREckANQBEREREREREMkANABEREREREZEMUANAREREREREJAPUABARERERERHJADUARERERERERDJADQARERERERGRDFADQERERERERCQD1AAQERERERERyQA1AEREREREREQyQA0AERERERERkQxQA0BEREREREQkA9QAEBEREREREckANQBEREREREREMkANABEREREREZEMUANAREREREREJAPUABARERERERHJADUARERERERERDJADQARERERERGRDFADQERERERERCQD1AAQERERERERyQA1AEREREREREQyQA0AERERERERkQxQA0BEREREREQkA9QAEBEREREREckANQBEREREREREMkANABEREREREZEMUANAREREREREJAPUABARERERERHJADUARERERERERDJADQARERERERGRDFADQERERERERCQD1AAQERERERERyQA1AEREREREREQyQA0AERERERERkQxQA0BEREREREQkA9QAEBEREREREckANQBEREREREREMkANABEREREREZEMUANAREREREREJAPUABARERERERHJADUARERERERERDJADQARERERERGRDFADQERERERERCQD1AAQERERERERyYC6tAOIhGRzztyW3Mod8WhbjG1w3xZjY9xH4ozAbOO+D60Hhvb99xLAMVbg/jLYS+AvY7xIbE8R8U/cnob4797Usjid35mIiIiIiEgy5u5pZxBZJ3bOGTvhfjDuBwB7AXsCG5Z3VH8GeBDjPtzuII5v94nTXyrvmCIiIiIiIsmpASBVw87t2IoVfBKLPwn2fmBU2pnAHXgU5yai3LW8bjf65MlL004lIiIiIiLydmoASEWzOfk9yNmRuB8B7JF2njXzHrBbwC8j13O5N7YuSjuRiIiIiIgIqAEgFcjmnrU5pe6xwFFgu6WdJ4Ei5jeC/ZKG7st9bGt32oFERERERCS71ACQimBgFPKfwjke49PU2gGVxss4F4LN9aapf087joiIiIiIZI8aAJIqmz27nrplY4DJwO5p5yk/d4huAD+bpmlXO+gvoIiIiIiIDAg1ACQVNrdtKKXBEyD6NrBJ2nlScjfwP9407Q9pBxERERERkdqnBoAMKGtrG8yohvHgU8A2SztPZfDbMX7gE1puSDuJiIiISAh2fsf6rIhHEOeGE5WGU7INiWw47sPf/B42BFuv9xf4YJxhvf/Nv/8bwG0F5m/csrQcrBt8OcZLOItwFhL5Ijy3CC+9QN3GT3lj48oB/i2LVAU1AGTA2JzTP04U/bjKD/YrI7ueqPRtHz/9obSTZI0V8t998w2IvDuP7/Pmll+nHUNE5O3s3NM3ZWXdpERFcsWfeOOpLwSKVLPs7I4tqIt3JWYbYDuM7cC2xtgEZyQwAhicYsQi8BTwOOb/wKPHsPivDI7u9uOmvpZirrKzrvb/xqODEhXxuNubW34QJpFUmto6aE0qks2ZsTNR9FOi3MfSzlLZ/OPE0Z1WaD+bpXU/9MmTl67510gQzomYb5p2jKpgdjGgBoCIVJ4VuVMwn5aoRqkuAqaGCVT9bP78HIue2gOKB2O2P84ewO7kGI4b2Nt+QeXMK9YBOwI74gY4uEGPx1bIPwzcifEXYrvJm6c+nG7UwGL7JObjE9UwWwL8IEgeqThqAEjZWFtbHaPqJxFF3wMa0s5TJQaDfYthxS9aZ/tEb265Lu1AIiKydmxeWwNLh+4O4BOn3JN2niyx2W0bUNfQlLySj7ezzjrdTzllSfJa1c268k04HcB6YJX0cJ9EBOwB7IFzLOZYIf8kcDVwFd2Db/JJk5anG1GkvNQAkLKwc/J7M6rh58CeaWepTrYtxpXW2X4hdXaKN057Je1EIiLSy9ra6ths8M7EtgfOXpjtDoyGhh2I4hxYFxDgYVTWWl19E7BhgEobUN/TDJweoFZ1c7YAsrA9bntgIjCRhhXLrJC/HPPzmNByo25rklqkBoAEZWAU8ieCnw5Wn3aeqmf2NUr+YZuTP9YnTvtT2nFERLKk92ta+/a47YHZnhh74b47oxp2I+7b3/z2JdAy4GxeWwM0fDNYQedkm9f2Yx/b2h2splSLocBXcfsqhfwT5nY+MT/3E6c+n3YwkVDUAJBg7Cenb8rg3C+AQ/SOKCTbmsivtUJ+Bgu6f+StrXHaiUREapV1nrY1VtcKjAZ2A1uv90ua5gIr1vL6Y4DNg9UzNqW74VigEKymVKMdMP8ROb5nXe3nEZfavfk7z6QdSiSpKO0AUhus0L4fg3O3AoeknaU2WQ74Lps2XGNdbaPSTiMiUrNs0JbAOOAAsrH8uarZ/Pk5sMnBCzuTe2uLUI9bM1b3mBXyZ9vsjq3SDiSShBoAkph15k8AuxnYJu0sNc/5KF5/qxVmjk47ioiISOoW/uNIYKcyVN6Bl54YU4a6Ur3qgYnU+aNWaJ+mBpFUKzUAZJ0ZmHV1fA9jDune9Zoxti2UbrJC/jNpJxEREUmV2ZSy1XZaVnPRncgQsHYWPXGXndOxf9phRPpLDQBZJzZr1hAK7b/B/XtpZ8mo9YD5vasvREREssfO6TgU2K+MQ+xNV/6/ylhfqts+xP5/1tXxPTWKpJqoASD9ZjNnDqNhxe/Ajkg7S8bVYcyxQv60tIOIiIgMuNhbyj6GM63sY0g1q8P9f+jsuNIK7RulHUZkbagBIP1iZ7UNZ1jxD8DH0s4ib5qiJoCIiGSJdbYfwMC8FznE5sw4aADGkWpmfhjYHdZ1+p5pRxFZEzUAZK1ZoX0j6uuvAzs47SzyH6ZYIX9G2iFEREQGhNnAzcxbpFUAsjZ2wnN/7mtOiVQsNQBkrdjMmcPALgPbJ+0s8o6+aV3tP0g7hIiISDlZoWMX4L8HbkCOsHNm7D5g40k12xCz63Q4oFSyurQDSOWzWbOGMKz0e+ADaWeRNXA71QrtS72pRasBRESkNrlPwgZ0Esvw6BSgcQDHrEWvgL0K/hrwau83e+XfP+3LwbpX/SW+DKwHPAe2AcRDIGoA3wAYBGwIbARs3ffjSjCc2K+xwsyPedPk+9MOI/J2agDIu7K2tohR9ReAfSjtLLLWfmRdHf/yCVN/mXaQjLkbfH7aIcovejjtBCKSXTZnxgii6OgBH9j5us2e8R0/afrCAR+72hXjUeX+vNn8+TkWProFNng7zLfDfXuM7YH9cHYHcuUcfzVGQPH3dt6sfX3cpJcHeGyRd6UGgLy7TYZ0gOu0/6pihsddNuf0533iqdennSYzjAd8Qks+7RgiIjUtisYDQ1MYeQh10XjgRymMXd3qRywp9xA+ZkwJeKbv2y1v/TnrbFuPqH5/PDoM/HBg53Ln6Rt5W1b0/NzgCAcfmDFF1kxnAMg7skL7BMxPTjuHrAsbRJT7tZ1zxk5pJxEREQnB5rcNBiamGKHZZs+uT3F8WQfe3Pq6T2i5yZumTvWmabtgpb1wP5vebQhlZp+nq/1b5R9HZO2pASCrZYWOg8Fmpp1DEhlOHP/OZrdtkHYQERGRxBY1fAnYIsUEm1O3/KgUx5cAfMKpD3pzy0l495Y4U4DF5R3QZtjcGbuWdQyRflADQP6DdZ6xGR5fDAxOO4sktjN19ecbWNpBREREEjol7QDgFZBBQvDm1te9edpM8B2BHwPFMg01iFLUUabaIv2mBoCswtraIiz+JWZpdtglKPs8ne1pLpkUERFJxObkPwzsl7DMcwGi7GOdHYcEqCMVwptaFnvTtG9jfiDGPWUa5nM2p+PjZaot0i9qAMiqRtVPAT6SdgwJzJhhhZmj044hIiKyTiImJaxQJOIzwOuJs5gnzSIVyCe03MuL3Qdh3lmWASI/UysypRKoASBvskL7fsD3084h5WD1ULrA5rU1pJ1ERESkP2zuGTsCn0tUxLnMx0+7D7ggQKTP6JDd2uStrUWf0DIR5xQgDlx+bwrtWgUgqdM1gAKAtbUNZlTDecCgtLOUw7BBg9h1+Iiq67q+sOw1nl+6NNTVMXvQXf9d4LuB6omIiJRfsXQyZsnucff4xwBE0U+I4yaSTYJFxPE3gRMTZZKK5c3TfmKdHSsxnxO2ctQI/L+wNUX6Rw0A6bXpkOm47552jHL55l77Rz844IPJ3jwMsIseeyg+6c9/LAUt6vYt62q/1Ce03Bu0roiISBnY3PyGmB2bsMqtPnH6HQA+fspjVshfC3w6YbSxVmj/nje1lPcEeUmNN0/ttEJ+RyDgNX5+uJ17+qZ+/Kkvhqsp0j/aAiDYnPweuE9JO0e51OdyTNjjvVXzWl/S080x119ZGnvDVaXXVqwIXb4Op2BtbWr+iYhI5SsxDlg/UQ3nx6v+2H+aqF6vYbidEKCOVLIF3dOAuwNWHMzK6JiA9UT6rWoeiqSMcvyEGr7y7yvv2S3abOiwqlj+f8NzT/k+888vXvz4w6H3nb2F7cumDXrTIiIiFc3mz8+RfJn9k2yy/RWr/D/NLdcCDyesC8bJNnduTW6dlF7e2lrE7WigO1xVOyxcLZH+UwMg4+ycjiNxPpx2jnI6aa/9K/513l0s8t07/1Q67Kr5xYB7/t+Z8wOb2zay7OOIiIisq4VP/jewfcIqs3zMmFW20zk4xuyEdQG2JF78xQB1pIJ589SHMQoBS77fZs4cFrCeSL9U/IORlI/NmjWEOJ6Rdo5y+tQ2O9heIzap6Nn/hxYv8g9e/qtix713xLGX/9m/z0YU6783UIOJiIj0m3FKwgqL8e6fr/Znou4LgJcT1ofYTk5cQypfHHUAywJVG8zQ4ocC1RLpN+0DzrKG7iaItk07RjmdMnr/ij34z93p/Nu98bTbbyqtKIU962+tGI12zhln+/gpjw384CL9Z3PbhlIcsi3OFlg8ksiG4z4coo3A1wPrXYprPhinDmwZHndj0XI87gZbTORPE/Ms5J7x5in/Svm3VDVsbn5D3Hai5JtjvjkWbY4zBPfhmBn4ULBueq/NegXiIm4vYv485s+DPceInud9TGvwg02kNllX+3vBPpCwylxvbn19dT/jja3LrJA/H5icbAh/nxXa9/OmlpD7xKXCePOUf1ln+/mYBbr5IfoEcE2YWiL9owZARtnMmcMYFgU81bTy7DVipB2yxTYVOfv/7NLX/Lgbry7d9NzTAzbl/58sRxxPB45LL4PIqgyMzvYdIRqN+a6Y7Yn7bsC20LAR5mB9H+l93/PGXyNf5TtwMHvL94Bb36+PsUJ+OXAvxl9w7gS/3ZtanhiQ32gFs8629aD+g2AfwdgXY3ecrXo/j9D7ue/7JBv8x+f/jZ9482P7PveLGmIr5P+F21MYT2P8DeIHiXL388KyJ721tYxnn0jVie1Ekn0FX0mRs9/1I8zn4DYJSDZZ0PtQmPCmAql4kV+MB2oAmO8dpI7IOlADIKuGFU8GG5V2jHL69t4HRWaV9/x/2ZOPxk03X1ta3BPwPJl15l+xuTM6vHH6I2knkez598M++2HRfuD7AftiNvzfD/Nl7ZENAd6P8/43Elmh40E8vpQo/q1POPXBcg5eSezsji2o40jcx2ANB/PW9wfh/ggiYAvMtwDe92YDpxTDqIbXrbPjAfD7gbupi2+p7n+X4q2s0P6JtFO8qdhzp5/U+mraMdaWzT1zJMZXEpb5jZ809dl3+wCf0PJPK+SvAL6QaCTnKJt75hRv/PaiRHWksr244v8Y1fACsHmAajsHqCGyTtQAyCCb2zYUGmp6z9oWw4bZkTvsUlFnXLyyoptT/nx96cLHHqqgWS7LUWQamrmQAWLnnr4pK6PPgX0K+BhmG/X+TIqLYVbhe/auOsi1WiF/H3gnS+su9MmTl6adLDQDo+uMz0B8CjkOwVM9F2g9zN8HvA+AUkTvagG/nsh+z8rua6rpARbss8Bn007xplz9gcBf0o6x1uLi8fQ26BLUiGat3QdGP4U4WQMAGvoytyesIxXMW1tjK+SvIcx7pq1s1qwhPmnS8gC1RPqloh6QZIAU68cCI9KOUU4n7bV/NDhXOdv/b3ruad/nkp8XK+vhv4/xJev88dZpx5DaZvPn56yQ/z0rc8+C/Qz4IrBR2rnWYG+wcxhWetYKHR1WaK/0vGvF2toi6+o4mkL+b3j8vzgfpzLfD2yG2ddwfkNdw0LrzF9nZ89MeiK8VDhra6vDaUpY5kafOOWetflAb5pyM/DXhOOB09R3baHUNLs/UKGIhtJOgWqJ9EslfsGXMur74nRS2jnKaf3Bgxm36+iKeG33lHqv9/vUVZcUn1v6eqVMcb6NDSJaGehQG5HV67uGa9Wl5dVjOPgUsMeskJ9obW3V+HsAwDrz72dUw+24/wLYLe08/TAY41B85WoPdJMasmn94cA2yYrYWf36cLd3Pytg7WzDS//4fIA6UtHicFvDvFTTB3FL5aqIhyQZQC8/cRhmO6Ydo5yO23V0NLy+Ie0YPLz4Jf/QwF/vt26ccbqTVgZAtd84MQI4m1ENd9mcGVW1f9Nmz663rvxZGH8GDkg7zzp6wk+avjDtEFJmnnSSwp5h5PZX9euXLIsuBpJvMQl1QJxUrmIU7mwSY/1gtUT6QQ2ArIn9+LQjlFPOjIl77pvq69rdOe+R++P3XfbL4l8XLazwJ/83bcCw+Mi0Q0jNezztAIHsTRTdZV35L6UdZG3YnBk7U7fsdpxvQsJz1dN1Z9oBpLysMHM02EeSFeFnfSuO1lrvGR92UaJxex1ic/J7BKgjlaonWhyslhoAkhI1ADLEzu3YCvivtHOU0xd22Dnabv0NU3uD++LypX7ENZcVm26+trSsuDKtGOsoHpd2AqlxZrXSAABYH+c3Vsh/N+0g78YKZ3yEKPo/YJ+0syRnd6SdQMrMSkln0FcSFc9dp18Z288Sjg1gREwMUEcq1eTJy4B+NZjema8Xpo5I/6gBkCUr4mPBavqAmm+O3j+11/Tvnnw03ueSnxf/8PQT1TLr/zZ2sJ0zY/e0U0gt82rfArA6P7TOju+kHWJ1elcoxNcCG6edJQh3rQCoYXberI1xvpasCFd446kvrMsv7Ts08O5E4/c62ubmNwxQRyqQ915Z81qYapEaAJIKNQCyxKiK5arr6kObb20HjtpiwGf/X13Rw8Q/XVf68nVXlF7qrvLbXOLoy2lHkBpWWysA/s38R9bZPintGG9l58w4DOdXQH3aWQJZSc/ge9MOIWW0omccMDRRDfdzEv16I8QqgPUoMjZAHalcYd5rxnFNT8pJ5VIDICPsnPzeYLuknaOcJu19wIC/nu948Xk/6NILij97+L7Ku95v3agBIOVjNbkCoJfZGVbIfzrtGAA2Z8ZBxNF8YFDaWYIxHtB92bWr94Yia05Y5lGaWq5PVGFl96+BpQlzgNFs1X3ehry7MDP3FmolgUj/qAGQFTE1fcDbThsOt8O22WHAXs/FOOZHd99W+ugVFxX/8eorVbrkf7V2sK7296YdQmqTN057BajVU9xzwEVW6Ei10WpnnTWcyH5D0pnUSuNo/38tW/Tk54DtEtUwn9u3PHud+UmtrwIXJ8rRa2c62z8ZoI5UGJs1awi9/94HKGa61lRSoQZAZnhN3017yt4HRpENTLP970te8g9e/svi/9x1a1yq9Ov91kn02bQTSE2r3VUAMBz8F9bWlt7X1vqeAljt3S2t/f+1zT3p7H83JZ8XIgpxHGIbABhNQepIZakvhjvfwbUCQNJRl3YAKb/e0/9tt7RzlMvGDUP46nt2K/sbbnfn/L8/EE++7YbS0pXVdsJ/P7h/Cvhh2jGkZj0OvD9QreXAYqD7LT/upnf2ux7YEBhOqNmatXMgoxqagDkDOCYAdk7HocBRAzDUK8DfgL9jvAr++qpvZKONAHDfBPOReLQJ5psD27CuEw85NQBqlc2ZsTNR9ImEZS7xidNfCpHHJ06/wwrt94ONTlbJPmOzO7byk6Y+GyKXVIiouCMe6i2nVgBIOtQAyIIV/ula3ok2cc/3RsMGDS7rGAuWL/MJf7q2dOU/H6/FKf+328+62kb5hNYFaQeRmrS2KwCKwD+AB4GHcZ4mFz+H+9PUsZDl6y/xk07qWVMRm982mAWDt6OO9xBH7wM+ChxEeffHn2bnnv5bP/7UF8s4xiqsrS1iVEO+TOWXAtfi/r9Qut6bv/PMuhSx2bPrqevZBY93xvx9wAeA/Vjze5FX+deKR9ZlTKkCUTSepPvlo7grTJg+Fv0M99kJq+TIxccDPwiQSCpFnNsVC/RWMPaXwxQS6R81ALLA/NBaPYumPpejcfd9yjr7//t/Ph5PuPna0qLuZeUcppJE0PAxwuyDFFmV8fhqdunGwCPgfwH7C2Z/YeWQ+9bmAX9NfEzrCuDRvm9XA1jnGZuBj8MYD7510jFWY0NW1k0CWspQe/U2rf9vnNDnd/wDfCbd9ReEOICv78/z/r5vvwWwmTOHsZ4fgseHAZ9mdfvAjb94a2u1HbS6EHg67RBvynnyg+3KwGbNGkJD4hPz7/Px0/8vRJ43eXwhWAcwJFGdyMbZ/Pk/9DFjAt0bL6kzwp3zYtGjwWqJ9IMaANlwcNoByuXonfeINh0yrCzdjWXFlXz/zltKP33g7mp745mc837UAJByMHuc3rMzFmBcgfM7it239h2+NSC8ecq/gNNsftsZvNQwDue7wBaBR5lgs9tOH7DfV2zjw/V57RmM6YzY/uJyP7j45MlLgSv7vmGdHbsRxYeBfRVn394Pqsbl/3apN03VHvA1aVh5FLBxsiIedvYf8KaWxVbIzweOSVaIrVj05GeA3wcJJhXAPxyo0Ct9X4tEBpwaADXOOtvfg9lmaecoBwNOHr1/WWb//7LgBR97w5Wlx15ZkoUl///J+UDaEaRG2fKHYOiHGbndbWnPivWtDihYof1i4CdgRwcsvyGD6k8AzgxYc7Ws0L4DZh8PVG0+9Yzz46amcjiVN099GHgYONMKM0dD6dtgt6aRRQaCT0hY4DXqowuDRHk752dYwgZAb6FG1ACoCTZ7xibURQcEKvf3QHVE+k0NgFoXRe+jJk+qh8O23dF2HT4i6Ox/MY456/674ta/3FJaGWdv4v9Nxh42N79h37VtIsF4Y+sy4Ja0c7yVN7UsBo6xQv4vwFmEuiHH7WsMQAMAt89hQTL/nKap45JepRaKN02+H/hG2jmkPKzQvh/YgQmrXFiuZpU3T/uzFfIPA0kPUf6UzTlzW5/47adC5JIU5aJPE+wGNVcDQFKjawBrnu+XdoJyOWX0/kFP9n7qtVf80Ct/Uzz1jpuz/fDfK6IU75N2CJGB5E3TZuMcS7gH4Pfa3DN2DFTrnZknPUEdjHsY2T2hUh7+JQss+RaJiPMCBHln5iHq54iKxweoI2kzawxXLLonXC2R/lEDoNY5e6UdoRz23WSUfWSLbYLN/l/02EPxe+fPK976wrN68/sGt5p87Yi8G2+e9gvgtGAFS6Ujg9VaDWtri8CS70n16Ft9WyJEys7OOms48JWEVR708VPvChLoHdX9Egjx9+I4a2vTqtsqZoWOg8HDbY90rg1WS6Sf1ACofXumHaAcJu19UJDX7qLu5X7ktb8rjb3hqtLrK/Xed1VWk68dkTUaucMPgu07Nzs0SJ13MnK9rYENkhWxB71pys1B8oisjcE93wCGJqph8bwgWd6FT5i8APjfAKW2YNP6zwWoI2lxvhew2tN9552IpEINgBpm53dsAWyUdo7Qthy2nn1h+50Sv3b/+MyTvv9v5xV//8/HM7/ef7WMPdKOIJIGHzOmRGTHEmLmzznY5s4dlDzVO6gr7Rygyh8C1BBZK9Z7hm/Sw/+K1MW/CpFnLYTZZuB416/yAAAgAElEQVQ2PkgdGXDWlT8K88PCFdTsv6RLy5FqWbfvEO5aqMrxzdEHRIOidd/+v7y4ku/deUtp9gN3x1rv/662TztAVXE+Z4V8mZejDqAcX/DGaZVzj/kA8/FTHrNC/jwg6T7lYcRL3guU5yo79x0S1zAeCJBEZO10tR+C2a4Jq/zBjz/1xSB51mTkDtex6MlnwLdOWOlQO3vm9n7i5CeD5JIBYeeevime+2nYqq6mq6RKDYBaZmyXdoTQ1h88mGN33XOdZ//vXvgvH3vDlaW/L1msZ/81G2Wdbet5c+vraQepEiP6vtWGlXFD2hFSF9fliYrjSb5a7kDK1wDYgKSdXiu9FCaMyNoIcPif27zkOdZyqDFjStbZPg+zpEvAI3LFE4BTQ+SS8rO5bUMpNVwBbBKw7EusHHZ1wHoi/aYtALVtu7QDhHbCbntHGw7u/3NJyWNm/vXO+CNXXFTUw38/5AZvk3YEkbT0Xdv1x+SV4qTXiL0LWy9xiTinyQAZEHZ2xxY4hycss4hNll8ZJNDaiut+DgTYLmjHlnVLkARjbW11FBt+BRwUuPQv/aSTegLXFOkXfdGvZeab47WzB6Auijhxr/3WqWnVUypx5I672JE77jKgr/mSx3Tce0f880ceqM5zBkq2FfBQ2jFEUuM2H/NPJqxRzgbAkOQ398WbBYkisiY5Px5I9gDsftFA31jhJ05+0gr5G4CkV25uRnHJ4cBvA8SSMrHzO9ZnVMNvgE8HLl2kFHo7gUj/qQFQyzzokqXUjdlhl2irYeuvU0djaN0gtlt/wwHthjzz+qt+/E3Xlv70/DPVvOKgdpa0i6yLOv8jpcRVku53fhe+PHkNUwNAys7a2iJGNYxLXMhzFwSI03/GeXjiBgDgjagBULGs0L4D2KXAPmUof4nOgJBKoC0ANc1q6uHtpHWc/U/DZU8+Gu//2wuKVf7wD2oASMZ547SnMZ5NWGbTsi37dZYGqPLeADVE3t2mDYcCCbeV+f0+cco9QfL0V0P35cDLiesYH7ezZ+qQ3QpjbW2RdXWcDHY/5Xn4X475d8pQV6TfquaBStbJxmkHCOWjW25j+4/avOL3Myzp6eYb119ZOuq6K0qLe7rTjpOcWc28hkTWmfO3hBUiViwpz4qsiFcCVPmYzW1Ldie7yJq4BZj9Z17yIOs49NjWbtxDXD0YkSsdH6COBGBg1pn/HKMabsf9J8Cwsgzk3uETWv5Zltoi/aQGQC1zr5k3dKeMPqDiX6s3PPeU7zP//OKvH3+4Ovf7r1btvIZEEkjaAIC6eNMAOf6T2RMBqmxAPOS4AHVEVsvmnjkSPOnhfyuJ6i4MEmhdWd15gSqNtbY2bcNNkZ3fsb4VOo6lkL8H4/fAAeUbzZ+irqejfPVF+qfiH6okAWNw2hFC2GX4Rvaprbev2Ndqd7HId+/8U+mwq+YXn1+6tNqX/K/KrCZeQyKJmCdvAMRlOpPF48fC1PHTrat9uyC1RN6uVPo6JHxPYlztEyYvCBNo3XjT5Ptx7gpQagtGNnwmQB3pB+tsW8/m5A+3Qvs8evwF8PMpz3L/t3Iib/bG1mVlHkdkran7WNOsJq6ambT3gVFklbn6/+HFL/kx1/9v6b6XFtbWg/+bvD7tBCKpK0VPESX8K+42JEyYt3mx52lGNSwBhiestD7OPJs791BvbFwZIprIWwRY/m/zkscIwPw8sP0T14k4AbgieSB5JzZnxgjMDiCKDsD9o1jDB3snxwb0PeVpPn761QM5oMiaqAFQ26q+ATBqyDC+8p7dKm72393p/Nu9ccvtN5V6SsmPCK9YXhurSEQSsfjVxG8YzRvChFmVt7bGVsjfBByRvJp9hNLii23u3KPUBJBQbM6Mg4iiPROWWUhu+FVBAiWVs19T4kwg6Ra5T1nnaVt783eeCREra+z8jvVZyoZENooo3hRnE4xtgO0wtsPZgSjqPWzR05qjsWtYsLw1pcFF3pEaALWt6t/ANe+xTzSkrrL6GM8tfc2Pu/EPpRufe6pGZ/3fwhjQu5ZFKpL7KyRehWTlW03j9kfMAzQAAPgCpcUX26xZX/dJkwJcMSiZl4vGkfyr5cWV0pTyxmmvWCF/GfD1hKVyRIOOA9oCxKps8eLbrZBf11fBRn3fD6e3E7sBkAP6nmL6yr71n+jKeHf2GIMHfc1bp9bQuVBSK9QAqGm+coCXOQXVkKvj+N33qajZ/8uefDRu/tN1pZe7s/K+2HrSTiCSOqt7FRK+hzMv32qaUmk+ddGZQKhVBl+gYcUDdk5Hk4+f+sdANSWDbObMYQzjqMSF3H8ZIE5AfgFY0gYAOONs/vwf+ZgxNbyUEHD2TTvCgHIeIbaP+7hJya+NFCmDinq4ksC8umdvv7HLntGoIUMrooPx6ooejrvx6tJR112RoYd/wL2qX0MiQZSWJT+8yct3kImfNH0h+PzAZXck9uuskL9Qd5bLOhsWfwlYP1EN5xFvbvlLmECBLOi5AXg6eSHfmpcf/2TyOlI57EEGlz7qJ059Pu0kIu9EDYBaZla1J44acOJe+1bE6/P2F5/zAy+9oPirR/+WwWVc1fsaEskUizuAcswifpVc6e9WyJ+rRoCsg+SH/2G/Sl4jLG9tjbFAqxLi6IQgdaQS3EEud4gff+qLaQcReTfaAlDbFqUdYF19drv32C7DR6Q6+78yLpG/947SaXffFpdSO0AmdS+lHaBqGPN8wrRj046RNQbG7BkjyeVGgo/AbCQeD8H6Zh3dhmC+vO+DXyK2FzF/niE9z/vY1u40s4fkE0590Aod54E3lqH8IGAcudIx1tl+CRad7U1Tby/DOFJDbO6MXSH6QMIyThRfGCRQaJa7AI9PJfley8/a2R1baMa4qjnwE0Z2T/MxrVo5KRVPDYBa5rxcrUcATBq9fy7N8R9Z8pJ/4/orS/cuWpDZJ38A3Ku2iSS1xebOHUT88p7E0b6Y7wn+HrAdge2pixr+feqTs8qBffbm//R+yBs/Xt6AFfIvgz+LRX/D4/vA7sf8YSa0POWVcoxUfxRL3yUXHY6xaZlGGITZ18C/ZoX83WBz6B50sQ4LlNUq5Y5L/NfIuMUntPwzSJ7AfPyUx6zQcRt40iZHHTkfC5weIJYMvCVgx3rT1MvTDiKyttQAqGWRL8KrrwOw/6jN7IObb51KcHdnzt/uiU+9/U+l7lIxjQiVZnHaASSbbNasIQxd+UFiPg5+CLAP2GDsjQeKIP9EbAy2Me6jwb4CgBsU8q8bPIzzABF3Ujf0ocSHAA4AP2n6Qus643g8/j3lPwF2P/DzaVgxy7ryl0B8gU+YfmuZx5QqYXPnDsL9mMSvwpiKW/6/qngeWNIGAMDx1tbW7q2tlf8Pjfybcwl1TPHGqQHOgxAZOGoA1DK3F9KOsC6+tfeBqez9X7B8mTfefE3p6qf+UX0zf2UT6X5iGTA2a9YQ6ns+j/FVGuy/iIOdat9f6wEHYByAc1w1PPy/wSdMudIKHR3g0wZoyA1xToDoBCvkHwUuoGTztJw54+KXP4tZ0pUo3ayoD324ZVjFnkuoa/gJMDRhpe3ZbMjHAd26UR3uhmiSN0+5Je0gIuuiIg5ZkzIxezLtCP21zfrr2xHb7TTgr8vL//lYvPcl5xf18P82yyJ1taXsrLNjN+vKz6VhxYuYXQz2ecJdaZc9TVOng/0mhZF3Bk4j509ZIf87K+Q/bW1tep+RRW7JD/8zrvRTTlkSIE3Z+Emtr+L+uyDFYnQYYMXz+zE7hgXdB3qTHv6lemkFQC2L/alqOwPgm3sdENVFA/d+8bUVPbTcfnPpZw/fVz1TfAPFeNEnT16adgypXdaZfz/GqRiH4dX2r1XlcnDLDT+a0hLAv5xChDrgCOAIRtU/ZV0d51HkPK0KyAabe/rmkEt+tZ1bmFP2y82YB3wteSH/vM2ZMcInTtfhu5XFgWvAf+xNLf8v7TAiIagBUMvq6v9BqSftFGttg8H1HLPLHgP29H/ngud97A1XlR5/ZYlm/VfHvepWkEh1sLn5bSiRx/gy5d+rnkne2LjS5s//GoueWARMTC+JbYv7/5Dj+9aVv5xSPNMnTr8jvTxSdqXo6yR/f7mIkcuvCRGn7Bb03MCoIc+Ab52wUj1R9FVgdohYktijwCXk4gu9cfojaYcRCUlL82qYN57yAlV0jdv43feONhxc/lW/xTjmR3ffVvrI5RcV9fD/buzBtBNIbTEw62r/NiUeAY5CD/9l5WPGlLxp2omYjwPSvvKwDudIouh2K+RvsULHEdoeUKtsbPISfkm1XKfmra0xFv8iUDldJZuuh4DTidjHm6bt4k3TvqeHf6lFWgFQ+x4EPpJ2iDUZFEU077lv2d8MPrrkZR9741Wluxb8Sw/+a+KuBoAEY3NP35xi7gLMDk07S9b4hJbzrTDzLij9Atg77TzAB8E/yKiGx6zQ/mOG9Mzzsa1pNygkAJsz4yCiaPfEhTyqjuX/b7DcBXh8Ksmbmu+1zjP28eYpfw0RS96VAw9jfhPYzcTRn7x5yr/SDiUyENQAqHXGA3jlNwC+/J7doi2HrV/W2cCLHnsonnjLdaWlK1eWc5jaYf5A2hGkNljnGftguT9gbJZ2lqzypsn32/y2A1lYfypm06iMQxZ3AiuwvOH71tl+BnU953hj67K0Q0kCUW5s73NVIo/RNLWqton4+CmPWaHjNvAAVwKWjgW+mbyOvMUrwN9wHsB4AKIHGVz3gI+b9HLawUTSoAZArXPuSTvC2vjm6P3LNvu/sHuZj7/52tKV/3xcs/5rLyYX3Z92CKl+VjjjQ1j8v8CGaWfJur4l1T+wQvsvMPsxzuFpZ+qzOWY/Jm74lnW2T6W55WIP8BQpA8vmtTVAw1EBSv2qKv/83S/ASN4AMPuazZ491U86qXoOcUrPEmAxxmJgMc5C4HnMnqLkT0H0DHHxGT9p+sKUc4pUFDUAap7fVunbbD+x1Xa294hRZQl53TNPeuPN1xSfX/p6OcrXLucBb5z2StoxpLr1nfJ/LTAk7Szyb97U8gRwhBU6Dgb/IfCJtDMB4GyF2UV05SeY+7F9OaVadDccAQwPUOnrVsh/PkCdgWXB/p0bQW7554DfBqqXvjg+mMiK614geh3i3uWbg+KlrIxW0NSypCobRSIVQA2AGudNLU9YV/4FnM3TzvJOThm9fy50zeXFlXzvzltKP33gbl3vty4ibk07glQ3O3vm9uT4HXr4r1jeNPV24NDeLRreBP41YFjauXA+DHafFdoneVPLuWnHkbXkjA1UaadAdarZsdRSA2DQiHu8sVH7L0UqhE7gzYKY29OO8E523WhjO3Sr7YLO/t+14AU/4NILinr4T+S2tANI9bLOtvXIla4ERqWdRdbMm6f81ZumjifHlsDJwMNpZwLWA/uZdea7bO7cQWmHkXdnszu2olJWktQC80/a2R1bpB1DRGqTVgBkgfkfwf477Rir8+29D4rMwjz/F+OYs+6/K279yy2llbGe/ROIofumtENINaufASQ/CXztLKD3tpMnged6f2zP4b4I8+XE1k3kywHI5YxS6Y0lyhsR+WA82hr3bcG2BbYDdgFGDFD2itK37We2wdl0dnyUyJv7zglI7wHcGE9p8U7W2Xa4N7dqL1elqvNjgOCr+TIs1/c5bU87iIjUHjUAssDq/4BX3nW6o4YM48s77hpkFcrTr7/qY2+4qvTnF57VfrDE/C6f0Log7RRSnWxO/sNE1lzGIVYA1+J2BXF0g584+cnQA9jc0zfH6/bEfT+cI4ADqfTDVAJycJqn3gjcaGd3bEEdJ+B+ArBlSpE+BkOus7POOsxPOWVJShnkHVjv341vpJ2j5jjHGuS1z11EQlMDIAN8wqTnrJB/iIGbkVsrJ+61b66hLvlL8KLHHopPvOWPpddXVl6Toyo516YdQaqTtbVFjGroohzby4xncf8pcK43tSwOXv8tvPHUF4AXgD8C7TYnvwcRD5ZzzErlJ059HmiztrbT2LT+cNxOBD464EHM30d9z+9s7tz/0l7iCtM14/0Q7Zx2jBq0M10z3s+E6TqTR0SCUgMgO66gghoAQ+sGccJueyd6SFjUvdybbr4mvuKfj2u9f1C5/007gVSpUUM+D75b4KqLcH7EyO5C3zV2Ay/ufoaoIZWhK4W3thaBS4FLrev0PfG6ieBHM7CHBn6U0pKfAk0DOKasiefGapK6TDw6FnQor4iEpUMAsyJXWafJjt1lz2hEw7ofDn79s//0/X87r6iH/+Ae9eYpf007hFQrnxK2nl3DoNKe3jztJ6k9/Mt/8AmnPuhNU5vIsSXu3wJ7ZiBHt0JH9V0RV6NsbttQ8C+lnaOGfclmzkz/Zg4RqSlqAGSEN057ALwSTnYmMuPk0fuv02uvu1hk8m03lA67an7x+aU6D6oMLkk7gFQnK8wcDbw/WEH3n7Jg+Wf8+FNfDFZTgvLGaa94c8sscsN3xP1YnEcGaOROm922wcCMJe8qHvJFQH8W5bM+w+Ij0w4hIrVFDYBMsflpJwA4fLv3RDtsMLzfB2r97eVF/oHLf1n86QN3x1psWCZeGa8RqUalcLOybmd6c8s3vbVVK3yqgDc2rvTmlnks7N4Dty+C31/mIbckVz+5zGPI2nAfm3aE2hcfm3YCEaktagBkiQ3+OXgp7RiT9j6gX6+72J05D94TH3TZL4oPvLRIz/7lYvyfN0+tiFUiUpU+G6jO5SxcPjVQLRlA3toae/PUy1jQ817cjy3r1gCzk+2ss4av+QPXQVwK8XWm5s9YsjlnbksaB0Jmjn3YCu07pJ1CRGqHGgAZ4hMmPYdZqie8HzBqczt40y3Xevb/mddf9U9eeUlx0q3Xl1aUUu9d1LaY89KOINXJCu0bAQckLuS8SK7uBM38V7feRkDLPLoH7YIxHVhehmE2ZHDP8WWoC9Qlv2XABvRwxHRY6evofeRAMCw6Ou0QIlI79A935kTnpjn6lPcetNavucuefDTe/7cXFG9+/mnN+pffKyzLXZp2CKlWuT0J8fXE/Pve+O1FyfNIJfBJk5b7hGntRNHeGH8KPoB5eR6KPA5wzaAPTV6jwpkfk3aEzHA/2qDfWydFRFZHDYCseXHZ1cDjaQy9/QYb2Oe23XGNr7lXVnQz9oarSkddd0VpcU/3QEQT41yfPHlp2jGkSlkc4orRV1lad2GAOlJhfPyUx3ix+5DeGwMohqtso63r9D3D1esTWfKMXtsrAOycGe8Ddk47R4bsSOGMD6YdQkRqQ83vUZNVeWtrbIX2n4L9dKDHPmX0gVHO3v35/8bnnvLjbry69NzS1zXrP2B8JXXRnLRTSBVz9khexK5VE6p29W3rmGVd+YdwLgcawlSu+xjwYJhab4hXJp5sdavpBgBx7hgI8mX6KrBlIQpVJHPD+SJBZu/9GOCW5HVEJOvUAMiiXM8vKDV8Hxg5UENuVN/A0Tvv8Y5P/93FIj+657bSzL/eGceuZ/+BZb/x46c+m3YKqWa2WeKHAfc7w2SRSuYTpl1rc/JHEfE7QjwUxf4BIHBDO/c6JDyGwmp3C4DNnl1PnX85QKknaZr2OQ/USahUVsjfSpArUn2MzZp1sk+aVI4zNUQkQ7QFIIO8sXUZ+E8GcswJe+wTrTdo8Gp/7uHFL/mHr/hVsePeO/TwP+C8BJZPO4VUvfUTVzB0A0VG+MRpVwCzghQzDgxS562GLlsSoEryvxOVqm7p54GNEtcxv6jWH/4BMPt1oEobUt9zRKBaIpJhagBk1dK6szFeHIihBudyNO2x73+81rzver8DL72g+NdFC2v/TUBFsgu9aerf004hVS9AAyAO8dAl1aLefoAH+Rq0lc2dOyhAnTf52NZuIOkBNFvU8KFtYQ7/M78oSJ1KV1ecD4S5xsgiHbwoIompAZBRPnnyUjw+cyDG+up7dos2GzpslTdCzy19zT911fzipFuvL/Xoer+U+EoG5U5LO4XUAk++39mi1wMEkSrhx019DeOcAKXqWPHqVgHqvF3ShlQD554+KkiSCmJdM0eBfSpAqXt9/PSHAtSpeH78qS8C1weqdqjNPX3zMLVEJKvUAMiyISu6cH+y3MOctNf+q7zOLnvy0Xi/315QvPG5pzTrnyazc/z4yWX/85dMWJG4glt9gBxSTaL4N0Hq1K3cIkidVVjy6yhLtkOAIJXF468S4vwo84zd+GEXByqUo5j7WqBaIpJRagBkmI9t7caiaeUc45PbbG97jdjEAF5d0cPEP11XOuq6K0ovd+sMm1QZL1OKNfsvoQQ4vT9eL3kNqSZ9M8ALEheKy3LifvKDUT3aJ0COCuPfCFAkphiF2hdfHXJ+Gcm3lfQyC/FnICIZpgZAxnnT1MuB/1eu+qfstX8O4I4Xn/cDL72g+LOH70t4tLIE4f59nzj9pbRjSK3w5A0Aj7YOEESqjfFI8hpR+BP3zZ8JUOW9AWpUDCvMHA0kb2oYN/qJU59Pnqh6eOO0V3D+EKjanjbnjH3D1BKRLFIDQMDt2+A9ocvuNWKkfXiLre1Hd99W+ugVFxWfePUVLfmvBO53MXLH89KOITXEoteS14h3CpBEqo2TfKm9x+G3j3iIFQB8JECSyuFxmAPo3DK2/L+PebhVD7lAfxYikklqAAjePPVhnI7QdQ/bZkf70OW/Kv7PXbfGJV3vVymKkGv2MWN08qKE4/E/k9ew9yUPIlXHKSauEeUCbEH5D08EqLGznT1z+wB1UmdtbXWYh9h73t23HD57uuuvBJI3SwGcr4S+/UJEskMNAOm1sCcP/C1kyZl/vTO+Z+ECPflXEvOZ3jzlr2nHkBpjPB6gysE2c2Y59nJLZUt+n7wHeqh6K/MwXw+j0pggddK22eD/AjZLXMe40hunvZI8UPXxSZOWg18eqNwoSks+HaiWiGSMGgACgLe2rsD8OEKc5t1Hs/4V5yGW189IO4TUoJKFaAAMZWjpiwHqSDUxdklcwwn/QNnQ8zAh7m43xhnYmj+wwsU5Lf8PwgIefujaBiAi60QNAHmTT2i5F/fWtHNIWXST4+jeGQiRwBoGPwgkP+Az4pvW1qavSxlhne3vAbZJWMZp8H+EyLNK0bGt3UCIujtT6Dg8QJ3U2FlnDQcP8XtYzMjlVweoU71yG/0/CHDuRa/P2nmzNg5US0QyRG+0ZFULe2YBN6QdQ0Lzqd447YG0U0ht8nGTXgbuT16Ifdl0iO64zoqIsQGqPO/HTQ2/BaDXrYHq/NDa2uoC1Rp49d1fAhqSF7L5PqY12CrDauSNjSuB+YHK1dOz8qhAtUQkQ9QAkFV4a2uMdR8D/lzaWSQQ90u8qaUr7RhS44wbg9Rxn22F9h2C1JKKZV2nbYnbiYkLOQ8FiPMOtf3aQIX2ZJP674aplYYozFLz2DO+/L9PzMXBapm2AYhI/6kBIP/BJ7QuwKIvl+NqQBlwD7KsbnzaISQDnD8GqrQh2DXWedrWgerVPJs9u94K+auts32szc1vmHaeNbF5bQ1QdxGQPGtUxhVr9fV/JMQ5AABm37HOji8EqdXfodva6vq2W/T/13a2vwf8/QFiPM2i7j8HqFP9FnX/GeyZQNUOskJH8nM0RCRT1ACQ1fIJU+8EJqWdQxIwXiYXjfHJk8txRZbIqhZ0/xF4PlC1nbBBt1rhjA8Fqlfbotf3AT6N2c8p8S/rys+3rvb/ttmz69OO9nZ21lnDWd5wOc6Hw1QMNUu/msrjJr2MBdsGUIf5xdbVflygemtk55yxk3XmZzCq4WnMfr5uRexoghxiaL/21tbk54TUgL7PQ7hVADoMUET6SQ0AeUfe1HIuxqy0c8g6WQH+VW+cEvxwLJHV8dbWIjAvYMWtIb7RuvJzreu0LcPVrUFRdOBbftSAcyRul1G37F9WyJ9rXe0fq4TDFa0z/znqe+4FPhmmoj/FhJbyXmvqdn7AaoNwO8+6Oi6y2R1bBaz7Jps1a4h1dRxthfabiOO/Y7QAmwMH9Lch1Hd7wdFBgpW0/H8VUcjPhx1dCX+/RaR6VO+hNDIwJkxrodC+OZgOmqka7lg03idM02GOMsD8PLCphPvaksM5Aeq+YV0dl4JfQEP3zX0ntMu/HfgO//9wYBxu4xjV8LwV8pcSxdfw2qCbB2plkM2cOYz1Sl/H7USMPcNWj85xKO99s7nl8yk1/IQQ2xXe4P4V6jjcCvlf48xjkx3+z8eMWeetBtY1cxRe+gTuh9Fgn8EZvppJ+3pyyw4A1n4ZfuGMDwPbr2uuf/P7/cQWHUL7Fj5+2n1WaL8fbHSAalszcsghwPXJa4lIFqgBIO/Kwa27fjwNKzYHPpJ2HlkbPt0nTNVsiww4b2p5wgod54M3Bi49GPevAF9hecNSK7Rfj9nVxH4PdfaoN04Leg+8tbVFbDxkCwb5HsTsTd2Qfcv9nJnQQWvxMVsAJxFHJzGs1GOF/G1gd+HxQ+SiB7HlD3lj67KkQazQvhGx7UXERzE+zDDehzO0DJ+/Hiw6L3TRt/PG1mXW2X4BZicHLj0UGIcxjkVPLLZC/nac+3r3hseLiexlsMV4XCL2OiJbH2wQ2CjMNwc2w9kV2IveP1uwNazUj/gg/WkAeHxMiMX/uOnr0eq4/RLjjCC1Ij8GNQBEZC2pASBr5JMmLbe5bYdTargS+GDaeeRdmP3QJ0z/cdoxJMNKtJHj6/Q+4JTDMLDP43weMyiBFfIvAI+ALQBeAX8d8+U4b7kezjYAy735Q/fhWN8Tk7kRMxJjU4xtGNWwKfggnL6J1Mp9+O+7B7y/B7zVA4eAH4IZxA40YIX8S8CL4AvBngN7Hec1jGLvobDe1yCw9XofRn0DjDrcN8dsW5xtwTZ4c3NhWT9tdpZPmLygnCO8qS5up5Q7nvK9pjcCPo3xad540Tm8+d/RW5/CE6x5cP/A2n7o/2/v3mP9rus7jr8+v0Npi8wFrUxRJ+JcnEAMiZcAAAz4SURBVGKiThPHVLYYweG8spoZNTNe6jkHamCjPQWSnVSn4wCLJJXCTvyDZU7/cHPihXndnGxzRuNQcWZzzqIBFNuuyqWn5ZzfZ3+ciqgtvX17vqe/z+ORnNCkh8/n3dPT9vye5/v5fsvs5pNSVv3BEe70YMNk/gMdrDN6huX9GatXJBk76Pse3Pll6+YL6uT0PR2sBYw4AYBDUtdN31eu2fyqrFz1ySTP7Hse9qPk3XV84zv6HoO21Qs33lGum3lnkncu4baPWXx70Cujur9vXT7o5x/8wv6BF/pZzq/19+/+vc9JJzdpS5I8cvHtQR+Mn1n5516IPvCfstQftzuzcuk+v+q6y+4s1125JalTS7XnsVHOKkk5pIQwXP3KpD786PesN9fJy7u64/1IqRduvKNsnfnHlLyog+UelrL6/CR/1cFawIhz0xAOWb1oelf2zJ2bki/0PQu/4Ko6PnWcf3HKyFhzxkwO51JjjkI50Pn/UVWTMlnfuPHug79rl4YzSe5c2j0794hcO/PUQ3rP2tGd5V3+/9AG5a+7W8zTAIBDIwBwWOpF07tyz9h5ST7T9yw84O11YuryvoeAn6hr1y6k1Ncn2dX3LCOv1kM5/z9CytV1YuOHl3rXOrHp/5K8Zan37dzYwY/x7Xvqxgs72G1PSv3bDtYZXcPdf5+kqxty/k6ZnfnVjtYCRpgAwGGrl1xyb1bPvSrVP+z9qven1nV1YurP+p4Efl4d37QtGbwsye6+Zxlxz+l7gCVTy025a/dlvW0/MfXxpLy3r/07cSj3Aahjr0sX59JrbtoXTjiAxTP79UMdLTfIfOnmsY3ASBMAOCL1DdNzmdz02pTizHkfSu5Ozfl1ctMNfY8CB1InNtycMnh1kvm+ZxlF5borzkhyat9zLI3yiZy0+/w6Pd3v59Lq3euTenOvMxyVcgg38h28rpOtOn3W/QireV9na5X6R6W7e4IAI0oA4IjVpNbxje9IresW7xDNkqj121nIC+rkpk/0PQocTB3f8LEMhi9PssRnthtQm/nu//syv/oV9Q3Tc30PUt8wPZcTV74iyX/2PcsReuK+S/z3q/zllc9O6pkd7LMrq/Z8vIN1Rt+jnvTZJHd0tNqTc92VjR0LAg6XAMBRq5Obbkgde36SbX3PMvJKbkrJWfWCqW/0PQocqvrWS2/KQn47/o7o1qCM+hf6e1PK+jox9fq6fv2yicz1TRfvTJk/J8ktfc9yRIZjB74KYNjVzf/yoeUQbI4Hde3ahSTv73BFNwMEHpIAQCfq5IZbMjZ3VpJP9T3LiJpPzZ9mfOqVzlRyPKoXTn09Y3lGkuuSDPueZyTUkX4CwJdS6nPr+Mb39D3I/tTxy29PnXt+Uj/W9yyHrZT93gegfHDziUle08keLv8/TGMdPg0gf1i2bFnZ4XrAiBEA6ExdN709E1MvTepkkvv6nmd01NtShi+qk1NXHNLzm2GZquumflQnpiZT8/wkX+x7nuNf/XFGL6ZsT3Jh7pp7bh3f9B99D/NQ6uT0PVnzpFek5NIkx8t3uxcO+DPbV5+XZE0He9yeH+z5XAfrNKNOXPK1JF/taLlTMrb7pR2tBYwgAYBO1aTWiU3vTVl4Xmpn/5g1qtaU3JC7B8+q45f+a9/TQFfq5NS/1Ymp56bkxUnxuX2E6sTUeanzpyd1U1K/1vc8R+n7KfWS3Dt2ep2YurZOTx8XYaOuXbtQx6euSMozUvL5vud5CLen1ndkLGfUiam37fc9ameXjn/gePn9W1ZK7e4qgOIYAHBgJ/Q9AKOpjl92a9m8+bdy6qqJJG9P8rC+Zzqu1Pqd1MGF9YKNn+57FDhW6vjUJ5N8smy96hkpwzcmeW2SR/Q8Vhe+m1puTcnXF1+Yj92aEx7+zWOxUZ28/HtJZpLMLD4VoLwkye8nOTvJcr8MeCEpn04d3pCT9tx4PJ8ZrxMb/yvJ2eX6mXOTXJaaF/Q9U5L/SfLh1NyYR53xhX1nzferzP7FmpS8pJNd68Dl/0difvCBjNWZdPEIxuTF5fqrT63jl9zVwVrAiBEAOGb2Pa5pS5m96qYsLFyTlHP7nmn5q3uSck32rHxXvfhiz09fKqV8NMkvH9Uaw3ypm2HaUyc33JLkbWXLlg0Zu/fslPJ7Sc5L8us9j3Ygd6dkW2q2JfveatmWMrwte1Z9u1500a4+hqoTm/43yZYkW8rWzScnq89J6ktS8rtJntjHTPtxT0o+m1o/kbLw0Tp++e19D9Sln0atmbNSsjbJy5KcsUTbzyfli0m9KcPceFg3i10Y/kZSbjzqCWrdue/PM4epXrjxjnLdzExSntzNivNPTXJ0AaDkG6nlg0c9yimnuCJkKZX6lWRwdL9vpd7b0TQsQ6VWR4pZGuXad70wg7Grkzyt71mWqY9nxdgf1zdf8p2+B4HloLznytMylmcn9TlJfjOLQeAJOTbx+t4sfrH8g6RuT8oPU/ODpN6VwWB7hsMfZqzcmRNO/F5908U7j8H+x1TZ+s7Hp5xwdpKzkjwlix/LAz4OriN7k3wrqV9JGXw5w/rlPGruy3Xt9N5jvO+yUq6deVpKOTslz0ypz0rNmUlO7GDpO5LcmpJbksHNGd73uTo5fU8H6wIwwgQAllSZnV2RhZ1vSs2mlHJa3/MsE/+SDKfrxKU39z0ILHdldnZF6o9Oz0J9XAb1V5KyJsPhmpTBqpThL6UOfi4O1PuS8pNHyP0ope5KsiMLZUdK2ZEThjuTue113XRzNy4tWzefnMHKJ6cOHp/kkclwTVJOXfxxOTmpJ+Wnxwgenp+9NHnf00jqXJIdqYPtKdmR5Pspw9uysOLb2X7P95wF/0VldnZF7r/7tIztfVwyeGxqOS2ppyRlZepwdcpg1QPvXIdzKYPdKdmdOrwztdyZUu/IsG6rF1y6o8dfBgDHKQGAXpQbNq/K7lVvSeqGpDy673n6Uf89ydvrxKbP9D0JAAAw+gQAelU2bz4xp656dZI/SRtHA4ZJ/iHDhffUCy77bN/DAAAA7RAAWBZKUnL9zDkZ5s0p9bykrOh7po5tT/I3GQxm61s3fKvvYQAAgPYIACw7ZetVj05ZeH1SXpPkzL7nOXL1/iSfSfK+zD/sI3X9+j0H+z8AAACOFQGAZa3M/vlTMl/WpuTlSZ6elNL3TAcxl9R/Ts3fZc+ej9SLp4+7u4UDAACjSQDguFFmr3lMFvaek9RzUvK81Dym75myeKb/myn5pwzrp3LCns+3eDdxAABg+RMAOG6V9179xMwPz9r3jPAzU/P0JKcc213rbUm5NaV+NbV8MXvmvlAvmt51bPcEAAA4egIAI6Vc/+7Hps79WurgCRmUJ2Q4PD2lPCKpj8zis61PyeKzrFckOTmpNSmLL+BL5lKzMyU7UuvOpHw/Nd/NWNmWZFv27v7vun76x7394gAAAI6CAAAAAAANGPQ9AAAAAHDsCQAAAADQAAEAAAAAGiAAAAAAQAMEAAAAAGiAAAAAAAANEAAAAACgAQIAAAAANEAAAAAAgAYIAAAAANAAAQAAAAAaIAAAAABAAwQAAAAAaIAAAAAAAA0QAAAAAKABAgAAAAA0QAAAAACABggAAAAA0AABAAAAABogAAAAAEADBAAAAABogAAAAAAADRAAAAAAoAECAAAAADRAAAAAAIAGCAAAAADQAAEAAAAAGiAAAAAAQAMEAAAAAGiAAAAAAAANEAAAAACgAQIAAAAANEAAAAAAgAYIAAAAANAAAQAAAAAaIAAAAABAAwQAAAAAaIAAAAAAAA0QAAAAAKABAgAAAAA0QAAAAACABggAAAAA0AABAAAAABogAAAAAEADBAAAAABogAAAAAAADRAAAAAAoAECAAAAADRAAAAAAIAGCAAAAADQAAEAAAAAGiAAAAAAQAMEAAAAAGiAAAAAAAANEAAAAACgAQIAAAAANEAAAAAAgAYIAAAAANAAAQAAAAAaIAAAAABAAwQAAAAAaIAAAAAAAA0QAAAAAKABAgAAAAA0QAAAAACABggAAAAA0AABAAAAABogAAAAAEADBAAAAABogAAAAAAADRAAAAAAoAECAAAAADRAAAAAAIAGCAAAAADQAAEAAAAAGiAAAAAAQAMEAAAAAGiAAAAAAAANEAAAAACgAQIAAAAANEAAAAAAgAYIAAAAANAAAQAAAAAaIAAAAABAAwQAAAAAaIAAAAAAAA0QAAAAAKABAgAAAAA0QAAAAACABggAAAAA0AABAAAAABogAAAAAEADBAAAAABogAAAAAAADRAAAAAAoAECAAAAADRAAAAAAIAGCAAAAADQAAEAAAAAGiAAAAAAQAMEAAAAAGiAAAAAAAANEAAAAACgAQIAAAAANEAAAAAAgAYIAAAAANAAAQAAAAAaIAAAAABAAwQAAAAAaIAAAAAAAA0QAAAAAKAB/w/iRyfuW9D9FwAAAABJRU5ErkJggg==;rounded=1;" vertex="1" parent="1">
          <mxGeometry x="430" y="392.42" width="140" height="50.45" as="geometry" />
        </mxCell>
        <mxCell id="aOcAcyVCXec-WAdpEkdR-10" value="" style="image;aspect=fixed;html=1;points=[];align=center;fontSize=12;image=img/lib/azure2/databases/Azure_Database_PostgreSQL_Server.svg;rounded=1;" vertex="1" parent="1">
          <mxGeometry x="670" y="382.58" width="45.22" height="60.29" as="geometry" />
        </mxCell>
        <mxCell id="aOcAcyVCXec-WAdpEkdR-12" value="" style="endArrow=classic;startArrow=classic;html=1;rounded=1;" edge="1" parent="1" target="aOcAcyVCXec-WAdpEkdR-9">
          <mxGeometry width="50" height="50" relative="1" as="geometry">
            <mxPoint x="660" y="420" as="sourcePoint" />
            <mxPoint x="790" y="520" as="targetPoint" />
            <Array as="points">
              <mxPoint x="610" y="420" />
            </Array>
          </mxGeometry>
        </mxCell>
        <mxCell id="aOcAcyVCXec-WAdpEkdR-13" value="Backend Server" style="text;html=1;align=center;verticalAlign=middle;whiteSpace=wrap;rounded=1;" vertex="1" parent="1">
          <mxGeometry x="470" y="430" width="60" height="30" as="geometry" />
        </mxCell>
        <mxCell id="aOcAcyVCXec-WAdpEkdR-14" value="Database" style="text;html=1;align=center;verticalAlign=middle;whiteSpace=wrap;rounded=1;" vertex="1" parent="1">
          <mxGeometry x="662.61" y="442.87" width="60" height="30" as="geometry" />
        </mxCell>
        <mxCell id="aOcAcyVCXec-WAdpEkdR-15" value="PostgreSQL protocol" style="text;html=1;align=center;verticalAlign=middle;whiteSpace=wrap;rounded=1;" vertex="1" parent="1">
          <mxGeometry x="580" y="382.58" width="70" height="30" as="geometry" />
        </mxCell>
        <mxCell id="aOcAcyVCXec-WAdpEkdR-18" value="" style="shape=image;verticalLabelPosition=bottom;labelBackgroundColor=default;verticalAlign=top;aspect=fixed;imageAspect=0;image=data:image/png,iVBORw0KGgoAAAANSUhEUgAAAgAAAAIACAYAAAD0eNT6AAAACXBIWXMAAA7EAAAOxAGVKw4bAAAgAElEQVR4nO3dfYxd1X3v/w9gM/acIXUcg43ljI1DSbjBTkki23kS1Y8kRqoijK3WgBGBOAYqQDY3toBbYfWCWtzCr5gmSDEpEBAJcXQx4SLde52UVL7RTWZoaRt8IbiFYTA2ZRyCTes9fjgE3z/OrPGaPWs/nHP2Pmvvfd4vaes87bPPmoh4ffda3/VdpwhAVfSNPc603psTOmdewjX2hV6/ZT1/Z+zxcJPtAlBAp/huAIBJ+tToxE3nPU9S/9jz+WPP50qaU6vVFgRB0PEG1mo1BUEwrEaA8KakvWMfvW493zf2+TsiaAAKhwAA8KNfjQ7+s7I69VqttsxHh94hw5L+UY0AwQQK+yS9JAIEoOMIAID8LNHJu/cvqPodfLuGNTFA+LkIDoDcEAAA7euX9Gmd7Og/KWmBzwZVydh0w4CkAUk/U2PU4Dm/rQLKjwAAaM4SnRy2XzZ2wI9hNUYMfqbGqME/6GT+AYAEBABAtD5JX1bjrp7OvhyGdTIo2CECAiASAQBwkhnK/4KkFWIYvyp2qBEQkFMAWAgA0M3McP4XarXaSpLzuoadT/BjERCgSxEAoJuMD+nXarUNdPgYMyBpuxojBCQXomsQAKDqzF3+ajGHjwRjKw62itEBdAECAFSNuctfw7A+MsDoAAAUWL+kDZJ+IekEB0ceR61WOyHpPjVGlQAAnvSJTp/D00EwgCpgCgBlYob3N4n5fBTHsKQfSXpCTBOgRAgAUHTjc/qSVnpuC5BkWAQDANCWJZKeVAGGezk4WjxeU2Oaqk8AgFgmme81+f/Hm4Mjy+NJkS+AgmEKAEWwUgzxozsMS7pf7FMAoIv1S9owlk3NwdGNx5Mi6AXQRVaKpXscHOPHWBC8QY2gGAAqxazZf00F+AeXg6PAx30iEABQAf1q/IPm+x9VDo6yHSQNAiglOn4OjmyO10SeAIASYO0+B0cOh5UnQE0BAIWyUszvc3B06iBPAIB3dPwcHP4OAgEAHUfHz8FRnOM+MTUAIGd0/BwcxT0IBNAUSgEjjSVqlC9lC16g+G6R9DeSDvtuCIqNAABx6PiB8iIQQCwCALj0S9ouOn6g1Gq1moIguEXSVt9tQfEQAMDWJ+kuNdYbA6iOYUmrJT3nuR0okFN9NwCFsUHSf4jOH6iiBZIG1SjUxdJBSCIAwMnM/vt8NwRA7lZKel2sGICYAuhmzPMDXYz8ABAAdB/m+QHYhkV+QFdiCqC7MM8PIGyByA/oSowAdAeG+wGkxbRAlyAAqLY+SV8XCX4AmjOgxrTAXt8NQX4IAKpriRp3/Qs8twNAeTEaUGHkAFRPnxp3/IOi8wfQnvvUWCa8xHdDkL3TfDcAmVpZq9X+uV6vM9cPICszJK0be/w/ko77bQ6ywhRANfRJelSNIh8AkJdhSd+QtMNzO5ABRgDKb6Wkf5Z0vu+GAKi8GWokBzIaUAHkAJSXmet/0ndDAHSdDZJ2i9yAUmMEoJyWSPqppEt8NwRA1zK5Ae+qsWwQJUMOQPlsEOv6ARQLdQNKiACgPKjmB6DoVokEwdIgB6AczBaedP4AiuzJsYOthkuAAKDYSPQDUDYra7Xaf4gEwcIjCbC4SPQDUEr1el0iQbDwyAEoppXirh9ANeyQ9FVJh303BBMxBVA8DPkDqJKVomZAITECUBxk+QOoOlYJFAg5AMWwpFarvViv1+f5bggA5MiUEd7puyFgBKAIKOwDoNtQOKgACAD8YQc/AF2rVqspCIKlkp7z3ZZuxRSAH/1q/Ef/Gd8NAQAfWCroHwFA5y2R9KIa82AA0O0uEXkBXhAAdNZKST/x3QgAKJhlkhZL+h+SjntuS9cgB6BzSPYDgHjDki4SyYEdQSGgzrhPdP4AkGRBrVZ7XRQN6ghGAPLVp8aQP8V9AKA5rBDIGSMA+elXo/wlnT8ANG9QjalT5IQkwHyYyn5k+gNA61ghkCMCgOytlPSTsTWuAID2sEIgJ0wBZIttfAEgY7VazSyh7vPdliohCTA7dP4AkK8BSV+SdNh3Q6qAEYBsbBCdPwDkbZkaydWMBGSAAKB9FPgBgM5ZoEYQ0O+5HaXHFEB77hPLVADAh2FRNbAtjAC0js4fAPwxVQMZCWgRIwCtofMHgAKo1WoKgmC+GAloGgFA855UI+MfAFAclA5uEgFAc+j8AaC4CAKaQACQHp0/ABQfQUBKJAGmc5/o/AGg8Gq12qBIDEyFEYBkJPwBQImQGJgOAUA8On8AKKdhUScgFgFANCr8AUC5DUtaJPYOcCIAcKPzB4BqGBZBgBMBwGTs6gcA1cIugg4EABPR+QNANREEhLAM8CQ6fwCormWSHvXdiCI5zXcDCmKJpJ/4bgQAIFfnS5ohaafvhhQBAYDUX6vVXqzX677bAQDI3zJJ76oxJdDVuj0HoE/SbkkLPLcDANBZqyTt8N0In7o9B+BR0fkDQDd6Uo3p367VzQEA9f0BoIt1+74B3ToFQKEfAIDUxYWCujEAYLkfAMA2IOkzvhvRad22CoDlfgCAsHnqwuWB3RQA9Et60XcjAACF1HXLA7slAOiT9JwaER4AAC6XqLE0/Fe+G9IJ3bIK4C6x3A8AkOxJdcnKgG4IADaMHQAApLFLjZHjSqv6KoAlkgZ9NwIAUDo71KgWWFlVzgGgxj8AoFXnq+JJgVUeAfiFGlmdAAC0aqkaSeSVU9UcgPtE5w8AaFOVywVXcQSASn8AgCxVslJg1XIA+tUY+gcAICuVrBRYpQCAYj8AgLwsU8WKBFUpB4BiPwCAPFWqSFBVcgCY9wcAdEJl8gGqMAXAvD8AoFPmqSL1AaowAsB6fwBAp5W+PkDZcwA2iM4fANB521Xy/QLKPAWwRNJ/890IAEBXmiGpVyVeGljWAKBP0k/Fkj8AgD+lXhpY1ikAlvwBALyr1WqlXRpYxiRAlvwBAIqklEsDyzYF0Fer1f6ZLX4BAAVSyqWBZRsBuE+NzH8AAIpmvqS9vhuRVplGAJZIesh3IwAAiDBf0g99NyKtsgQAZP0DAIrufJVoVUBZVgGQ9Q8AKLyxVQGlKBBUhhEAhv4BAKUwlqReigJBZUgCfE3c/QMAyqXwewUUfQpgg+j8AQDlU/i9Aoo8BdAv6X/5bgQAAC0o/F4BRZ4CYJtfAEDZFXYqoKhTACtF5w8AKL/tvhsQpYhTAJT7BQBUxQwVtExwEacAKPcLAKiMWq2mIAjOkHTYd1tsRRsB6FeBh0sAAGhWUWsDFG0E4Ek15v8BAKiaQm0WVKQkwCWi8wcAVNd9vhtgK9IIABX/AABVV5hlgUUZAaDiHwCgGxQmz60ISYB9knb5bgQAAB1QmGWBRZgCYNkfAKDbeF8W6HsEgGV/AIBu5H1ZoO8RAJb9AQC6lddlgT6TAFn2BwDoZl6XBfocAeDuHwDQ7byNAvgaAeDuHwAAj6MAvkYAfiG2+wUAQPJUHMjHCMAS0fkDAGDc6uNHfYwAcPcPAMBEHR8F6PQIAHf/AABM1vFRgE6PAHD3DwCAW0dHATo5ArBSdP4AAES5v5M/1skRALb7BQAgXsdGATo1ArBSdP4AACTp2ChAp0YAmPsHACCdjowCdGIEgMx/AADS68iKgE6MAFDzHwCA5uS+R8BpeV5cUr+kB3P+DQAAquYUSTvz/IG8pwBuyfn6AABU0QZJfXn+QJ4jAH2S/nuO1wcAoMp+LWkgr4vnOQLw9RyvDQBApdVqtVy3Cs4tCbBWq50IgiCvy6NEZs+ereXLl/tuRiojIyPauTPXaTeUwKJFi3ThhRf6bob27NmjwcFB382AX6sk7fDdiGaslHSCg0PSieXLl58ok0svvdT7/2Ycfo8NGzb4/s/wxIkTJ07cc8893v+34PB+vKac5DUF8P/ndF0gd9/97ne1cOFC381AgRw7dmzC8/ARda7ru3HnhN8H1KiiuySPC+cRACwRZX9RYjNmzNBTTz2lWq3muynwKNzB2897enomPLqCAfPaPsc89vT0TPiOOcc+D7DkUhgojwCg43saA1lbvHixvvnNb/puBgoq6Y7dFQhImhQMhAMI13cANabV+7O+aNYBQJ+o+oeKuPbaa3X99df7bgYqJGm6AIiRed+adQDA0j9Uyv3336+lS5f6bgYK5MiRI85H1zmtvgbC8lgSmHUAsD7j6wFe9fT06PHHH9fs2bN9NwUd5urojxw5ounTp096tD+XNP6ZeT98jv3adb59LUCSxpbVZzoKkGUAQPIfKuncc8/Vd77zHd/NQAGEO2rzGNXJx51j2J29HRAADmuyvFiWAQDJf6isr3zlK7rzzjt9NwMdEjXMH9dBRw3r2+eGO34XV5ABjMk0GTCrAIDkP1TeHXfcUZqKhmhP0h14Mx1zs504nT4SZNbXZhUAkPyHrvCDH/yAIkFdIK4THh0dTXWNtOcBTcos1y6rAIDkP3SFGTNm6Hvf+57vZqDD7M68t7d3UuduXtuPvb29sZ+neQQcFiijyoBZBAAk/6GrLFu2TA8//LDvZiBno6Oj44fp9O2OOfw6zfcN89p+tL9nvwYcMsm5yyIAuCKDawClcu211+rqq6/23QzkzHTErk45/Fn47t18Hu78XYGD/Z4r2ABCVqqRe9eWdgOAPkkb2m0EUEYPPvigFi1a5LsZyFG443Y9hp/bgYH9aAcQ4XOifhOI0XbuXbsBwJfbbQBQVj09PdqxYwebBmGCqA48KmAAWrS63Qu0GwBkWpQAKJtzzz1XTzzxhO9mwJO8O3ICBcRYpjZrArQTALD2H1CjSNBtt93muxnIkL0MMG4aIGp+3zVdEJXhH3cukKCtPridAIDhf2DM3XffTZGgCpk+fXrkCoBwR21/7kr8cwULrhUC9ueupYaAQ1vTAO0EAAz/AxaKBFVTuGM3XCsEopb8mc/s165kwbhVB4BDW9MArQYADP8DIRQJqo5wJcCkzP+4BL+kIf+ocxkBQEot98WtBgAM/wMOy5Yt07e+9S3fzQDQPVqeBmg1AGD4H4hw4403UiQITeFuH21oeRqglQCA4X8gAUWCyi8qgz9NHf9ma/7biYSsAkALWuqTWwkAGP4HElAkqBpciXmurP3w+a5VAHEFguxAIK5KIBChpQ35WgkAGP4HUqBIUDWEg4CohEDXOeGMf1dgYH/O3T9atEAtTAM0GwAw/A80gSJB1RDVKbu2/HV9L2oUIOpunyWAaEHTfXOzAQDD/0CT7r77bl100UW+m4EctHu3nrRvwNGjR9u6PrpK06sBmg0AvtDsDwCQvv/972v27Nm+m4EcpF3338p3gSYsU5NbBDcbAKxo8nwAkubOnasf/ehHvpuBJkTV9befh5MBoyoBRq0MiCr5SyCAFjU1St9MANCvRqIBgBZQJKg8jh07NuF12iV+rnr/0uSywUn7CtifAU1oapS+mQCA5D+gTRQJKoeenp7x5676//ZzV4a//X54o6C4hD/2AECbmhqlbyYAYP4fyABFgorPHgFIqvkfdcce9TrcwZMHgAwtUBPLAdMGACz/AzJCkaDuRgePnKXuq9MGACz/AzJEkaDyCIIg1WdR57nOibsm0KbUywHTBgAM/wMZo0hQ8QVBoFqtNqHjtp+7RnHMOeY8+/vmufme67qu10ATUi8HTBsAsPwPyAFFgsoj3HGbztwcdjBgPw+fGxcQhH8HaFGqUfs0AQDL/4AcUSSomFx3+q67d/t1uIO3rxV31+8aaZCkI0eO5Pb3odJSjdqnCQA+3WZDAMSgSFDxuebxwx163Lmu86J+w777nz59eostRpdLNWqfJgBg9z8gZxQJKp+85ujt6zICgBYtUIo8gDQBwCfbbgqARDfeeKNWr256Pw/kIGkTHpbyoQQS8wCSAoA+Mf8PdMyjjz5KkaCCiSrtG1XON/xe+LOoz12PQBsS8wCSAgDW/wMdRJGg4gh32K7SvuHSvfZ7rrLA9rVcj1G/D7RgWdIJSQEA6/9RKQMDA76bkOjcc8/VQw895LsZXW3atGmSossA28J3/uHOPGlkwOYKKoAWtR0AJF4AKJM1a9bozTff9N2MRKtXr9aGDRt8N6Nr2TkA4U1/jLiAwHW+673wBkFMASBjS+I+jAsA+kQAgIoZGRnRypUrJ233WkRbtmyhSFABtNopu85nmB8d9tm4D+MCgP+UcUOAQhgcHCxFCd6enh6KBBVAmmmAdq4Zdw7LANGm2Gn8uAAgNnIAymzr1q3avn2772YkokiQP6679XD2f1Jmf9TQvrlO3LnkAaBdtVotdmfAuACABEBU2tq1a/XCCy/4bkaiZcuW6Z577vHdjK7k6vRdiXpRmf1R1zSfu7L/7XOAdowVleqP+jwuAEi9pzBQRkEQ6KqrrtKhQ4d8NyXRxo0bKRLkSfiOvNk1/FF39nYgEPVbQAYiy/lHBQCREQNQJbt379YNN9zguxmpfPvb36ZIUIe4KgG2mgSYtHogTbIg0IbI0fyoAIANgNA1tm/frnvvvdd3MxLNmDFDjz/+OEWCSobOHJ5FruZjBACQtGnTplIUCVq8eDFFgirODhjKsFwVhdd0AEACILrOihUrKBIESY1KgK4s/bjX9qN9Ttz3Xc/txMCenp68/1R0B+dNfVQAwA6A6DojIyO68sorfTcjlS1btmjp0qW+m1FZJgcgXOffFk4KNMLJffZze4WAq2Swa5MhIAPOaX1XAMAOgOhau3bt0u233+67GYnMpkEUCcpXmjr+4UDAFRhE1RAIlxkOX4MpAGQk9QgAFQDR1bZs2aJnnnnGdzMSzZ07V9/73vd8N6MruZbuuV7HnWe/R4lg5Mw5re8KAKgAiK53xRVX6JVXXvHdjEQXX3wxRYI8SNtB05GjIJzT+q4AYH7ODQEKLwiC0mwatHHjRl166aW+m1FJcXfmaev5pz23mfOAJi1QY3p/AlcAwA6AgBpFgq677jrfzUjlu9/9rhYuXOi7GZViz9vbc/ZJpXvjyvgmrSJwXQ/IyKTpfQIAIMZjjz2mBx54wHczEs2YMUNPPfUURYIyllSa11XO15zv2h/AvqZ9HtAB88JvhAMACgABIbfeeitFgrpUUv3/ZvYHcC0pDC8XdJ0LZGRSImA4AKAEMBASBIHWrFlTik2DKBKUDVMHIOnuvJm796j8gbjVAa49CYAWTRrdZwQASGFoaEiXX36572akQpEgAGG1Wi0xAGAFABBh586duuuuu3w3IxFFgvJx5MiR2NfNXsM8d70HZC0IgknvMQIANGHz5s0UCeoSdgcd7qSPHDmi6dOnT+rEkx7t76T9PSBDE/r4cADAHgBAgnXr1lEkqEvYHbfrM1eHHhcEJJ1r/w5BAHIwx34RDgAWdK4dQDmNjIzoqquuokhQF3EN14dfhz+zO/NwABE3CuAKNoCMTKj0awcAk6oEAXAbHBzU+vXrfTcjFYoE+dHq3D53/ugUOwBgEyCgCdu2bdMjjzziuxmJKBKUjWaTAOMCABL/4MmEWgB2ADCpShCAeDfffLNeeOEF381ItHjxYn3zm9/03YzSOHr06KRO2gzNh+fr7bl9+7mdHxBOGIz7LNwOIENz7Rd2AMAKAKBJQRDosssuK0WRoGuvvVbXX3+972aUwrRp0yRFd+7hztz13IhaNWBeu0YHWAmAPIRrAdgBADUAgBYMDQ3pmmuu8d2MVO6//36KBKUQvvOOWgVgP7qeu7L6XUFC+DWJgMhDuBYAIwBABp5++mnde++9vpuRiCJBrWm1c3bdxae5s+fuHzka7+vtAIAaAEAbNm3apGeffdZ3MxJRJKg9rXbO7PqHghjf88cOABZ0vh1AtaxZs0Zvvvmm72Ykuvjii3XnnXf6bkZpmG1/zXP7Mep52p0D474D5GDSCAA1AIAMjIyMaOXKlaUoEnTHHXdQJCiG6fRd2/Oa9+zAIPy+Yb+Oej/uO0BeTAAw02srgAoZHBzUbbfd5rsZqVAkKJmrAw933vZn4XPSvG8HGeGgAsjYeMK/CQDmRJwIoAVbt27V9u3bfTcjEUWCkoU7evu98HPX94xwoJB0PpATZxIggAytXbuWIkEV0m4H3cr3KQSEPJkAgCqAQMaCINBVV11FkaAKcHXER48eTdVBm3PozFEQ49UATQBADQAgB7t379YNN9zguxmpUCRoItPB2x24/dxUCwyfGz7MedOmTXNeM/wYPgfI2PiUP1MAQM62b9+uBx54wHczEvX09Ojxxx+nSJDF7rzNY9Qdvetcc144GHB937yeNm3ahPOAjC0wT0wAQBlgIEc33XSTBgYGfDcj0bnnnkuRIEvUnbo0sYNPOjd8vbj3uPtHpzAFAHTIihUrKBJUEmkS9g4ePNiBlgC56JNOBgBzY04EkIGRkRFdeeWVvpuRyh133KHly5f7bkYhRG32E94TIG5zn7j30n4XyNBMiToAQEft2rVLt99+u+9mpPKDH/ygq4sE2dv4mtfhLXzt5/Znru1/k77v2l0QyMkcaSwAqNVqC7w2BegiW7Zs0TPPPOO7GYlMkaBuZIr2hDtsw+7c7XNMsBDu/O33wgGF+SzsyJEj5AIgL/OksQAgvEcwgHxdccUVeuWVV3w3I9HixYv18MMP+25Gx5kcALvztl9HTQu4Ov24z5Lu/lkNgJz0SywDBLwIgqA0mwZde+21uvrqq303w6tWh+XjvpfmmowAIE8EAIAnu3fv1nXXXee7Gak8+OCDWrRoke9mlELU6ABQNAQAgEePPfZYaYoE7dixoys3DXIl7IXftx/tof2kc12PBA3olFM1th4QgB+33npraYoEPfHEE76b0TFxyX9JHbl57goG7OuEv+vKGQDywggA4FkQBFqzZk0pNg36yle+ottuu813MzrK1VmHP7cfo0YCopYOur5L54+czZcaAcBMzw0But7Q0JAuv/xy381I5e677+6qIkFJnXFUp52mE4/6rmtZIJA1RgCAgti5c6fuuusu381IpZuKBMWt1Gh2FUfa8xkBQCcQAAAFsnnz5tIUCarypkGu2ijHjh0bP8zrZj/r6emZ8H7UoznS7EkAtOpUUQYYKJR169aVokjQsmXL9K1vfct3M3JRq9Umdeim8+7p6Rl/3zwPd+zmfdf3XIFC+NF8x1QkBDJGISCgiEZGRnTVVVeVokjQjTfeWMkiQVEjAPZj1Htpz4liBxiMACBPBABAAQ0ODmr9+vW+m5FKFYsE1Wo1b1X4yhD4oRoIAICC2rZtmx555BHfzUhUxSJBQRBo2rRpOnr06IRDUuSjeZ50fvh51DWAvJ2qsV2BABTPzTffrBdeeMF3MxJVsUiQ6YSnTZs2vinP0aNHxwMD82ifGz7fvpYdUNjfcV3D9RrI0FypEQDs89wQABGCINBll11GkSCPwnfkUZ2+/X6au377Oy7sBIgcvSkxBQAU3tDQkK655hrfzUjl7rvv1kUXXeS7GR3Xyt266ztxAQOQNQIAoASefvpp3Xvvvb6bkcr3v/99zZ4923czMpF2WD6PjpsAAHkjAABKYtOmTXr22Wd9NyPR3Llz9aMf/ch3M9rmGtK337c/s4fz7XwB+5yoI3xO+DeAvJwq6S3fjQCQzpo1a/Tmm2/6bkaiqhQJCicAmvfsjt/+zNWRm3PCyYHhxEL72sz/I2d7JUYAgFIZGRnRlVdeWYq14lUoEuRakpc03O9aAeC6VlQAEXVdIGsEAEDJ7Nq1qzTZ9lUsEpSkmc476VxXRUIgK6dKesd3IwA0Z+vWrdq+fbvvZiQqa5GgcMebdu1++PxmXzMCgE5iBAAoqbVr15Zi06AyFgkypYBdSX6SIosBuc4PD/XHFRECOuR1iQAAKK0gCLRy5UqKBOXIlagXV80vbk4/as6fPAD4cqqkw74bAaA1u3fv1g033OC7GamUqUiQmQJodn1/0jlJxX+ATmIEACi57du364EHHvDdjFSqVCQIKDsCAKACbrrpJg0MDPhuRqKyFAkySYtxyXqugj4uaQr+MDIAH06VVLoMXQCTrVixgiJBGXGtAnBt5mM/j6rwZ38eLvgT9X0gZycLAQVBMOy1KQDaNjIyoq997Wu+m5HKjTfeqNWrV/tuRizX3Xlcdr/5PPz9uGuGtwgOXw/IyT7p5BQA5YCBCti5c6duv/12381I5dFHHy1dkaBm1/c3+z4dPzrJBADFHzcEkMqWLVv0zDPP+G5GorIWCZKk0dHRjlyLSoDIyVvSyQBgr8eGAMjYFVdcUZoiQQ899JDvZjiZjtnuoMOddZrPkh57e3sjPytjcIRSeEdiFQBQSaZIUBk2DVq9erU2bNjguxlOdoc8Ojo63ln39vZOOMf+LBwI2Oea1+Hzw++ZR0YAkJPD0skA4HWPDQGQg927d+u6667z3YxUtmzZUsgiQabzDnfidkdvPrMDg3AHHw4kwufb1436DMiCParEFABQYY899pgeeeQR381I1NPTU8giQVFD865zop7bHXlchx/+PMs8A8CwV/0xBQBU3Ne+9jWKBHkUlycQdy6Qk/FVfyYA2OepIQA6YM2aNaXYNGjZsmW65557fDdjEubiUSHjq/6oAwB0gaGhIV1++eW+m5HKxo0bvRcJOnz45B5pQRBMmDe1g4FwYOD6LO17Ua+BjI1P+ZsA4B1PDQHQITt37tRdd93luxmpfPvb3/ZaJKivr0/SxM7f1WnXajUFQeDsxMNBg3nPfgw/D58P5GA86d8EAGwJDHSBzZs369lnn/XdjEQzZszQ448/7m0d/OHDhyPv1u2AIBwI2MKfhz8Lv2dfg/X/6AQ7CXDYVyMAdM6aNWtKsWnQ4sWLvRUJMiMAcXf/4c9d54bfi5sOiJsWADI0aQpAIg8A6AojIyMUCUpgcgCSOuKkTpuOHAU0nvRvBwDFXycEIBODg4Nav36972aksmXLFi1dutR3M7ywkxGBjLxkntgBANUAgS6ybdu20hQJ2rFjh5ciQa3cwbuG9Ju9ljnXTNY5gf8AACAASURBVEUAGRqPKu0AgGqAQJe5+eab9cILL/huRqK5c+fqe9/7Xsd/107MS5q/t7P6ba5EQft8+3X4dxkBQMaG7Rd2AEAxIKDLBEGgyy67rBRFgi6++OKOFgkKd9Dh5Xr2e1Kj03Yt74taKmi+41pS6AokgAz8o/2CJECgyw0NDemaa67x3YxUNm7cqEsvvbSjvxnO5HcVBYpayx/1PddvhM8jgRA5mDDSzxQAAD399NO69957fTcjle9+97tauHBhx37PVdQnaphfmtjRu4KFtJUBGQFADibk+oU3AxruXDsAFMmmTZtKUyToqaee6mgH2UxCX1br+RkBQA4iRwAkpgGArkaRoPaRuIcC+wf7RTgAoBYA0MVGRkZ05ZVXUiTIYnfo5rn9GH6vr6/PeV7a64XPATI0Yd+fcABALQCgy+3atUu33Xab72akkmeRINO52x16WF9f3/haffs88zz8GPXcfgxfC8jC2JTZhP+owgEAiYAAtHXrVm3fvt13MxLlVSQoCILxzjgqCDCduH3Yn7m+E+7oXefbwQGQlSAIJo3whwOAfwifAKA7rV27Vq+88orvZiTKq0iQ3QlHPbc7aftz13eiHsPn2L8PZCgxAGAEAICkxl1wWTYNyrpIkFlhkHbuPvw87j3X3T/QAZOm+MMBgMRSQABjdu/era9+9au+m5FKlkWC8lyCNzIyUoh2oOv8PPyGKwD4UQcaAqAktm/frgceeMB3M1LpRJGgtDUBouoBUOkPnrwUfsMVALASAMAEN910kwYGir9KOOsiQa5Ne8Kb+tgdelQ5YNf17OvY50btJgi0yrUCQHIHAJOGCQBgxYoVpSkS9M1vfrPt65hOOimYCJfutTcBcnG9H9XZUw4YWQiCYIfrfVcAQDVAAJOYIkFlcO211+r6669v+zpRO/uZz8J3/+Z53KN9bdf7SZ8BLXAm+LsCgL1EnQBcdu3apdtvv913M1K5//77MysSFLWzXyt37mn3EQAy9DPXm64AwFkwAACkRvW9Z555xnczEuVVJEhK7qjpyFEwzho/zgBA7AkAIMYVV1zR1UWCgJJJPQUgRQwXAIBUviJBd955p+9mAL4MR30QFQDsy6cdAKpi9+7duu6663w3I5U77rgjsyJBQMn8Y9QHUQHAczk1BECFPPbYY3rkkUd8NyOVThQJAgoockQ/KgCQyAMAkMLNN9+sF154wXczEmVdJAgoicjaPgQAANoSBIEuu+wyHTp0yHdTEmVVJAgokcgR/bgAgERAAKkMDQ3p8ssv992MVLIqEgSUQOyNfFwA8OOMGwKgwnbu3Km77rrLdzNSybJIEFBg2+M+jAsADoutgQE0YfPmzXr22Wd9NyNRT0+PHn/88VyKBAEF4lz/b8QFABJbAwNo0po1a0qxadC5555LkSBUXexIflIAQB4AgKaMjIxQJAjwb1iOLYBtSQGAs34wAMQZHBzU+vXrfTcjlTvuuEPLly/33Qwga4kj+EkBADsDAmjJtm3btH17bA5SYfzgBz+gSBCqJnEEPykAUBAEO7JpC4Bus3btWooEAX4kjuAnBgAiDwBAiygSBHTeWCAbuwJAShcARJYRBIAkQ0NDuuaaa3w3I5Vrr71WV199te9mAG1JO3KfJgB4jmExAO14+umnde+99/puRqJjx47pwQcf1KJFi3w3BWhHqvWtaQIA8gAAtG3Tpk2FLxLU09MjSdqxYwf5ACizVJV8UwUAShlNAECcIhcJOnbs2Hjtgg9/+MN64oknPLcIaMmwEtb/G2kDAPYFANC2kZERXXnllYUtEmRGACTpy1/+sm677TaPrQFakrqCb9oA4LDYHhhABnbt2lWIjtW+4w8/GrfeeitFglA2qYeu0gYAEgEAgIxs3brVe5Ggnp4e9fT0RI5GHDlyRNOnT9e3vvUtNg1CmTyX9sRmAgAmxABkZu3atXrllVc6+pv2nb49AhB25MiR8cdZs2axaRDKoqmE/WYCgNRRBQAkCYKgo5sGHTt2bMIcfxRz52/71Kc+pXvuuSevpgFZaSpSbSYAkJqMLgAgzu7du/XVr361I79lhvvj7vrtO/+wr3/961q9enWubQTa1NQGfs0GAIyDAcjU9u3b9cADD+T+O3EjAOG7/vAIgCSNjo7qr/7qrygShKIaVoryv7ZmAwC2BwaQuZtuukkDA/nkGbuy/W2uu337vdHRUY2Ojqq3t1eS9OCDD1IkCEWUevmf0WwAsFesBgCQgxUrVmS2aVCavAIz5G/u9l2BgKTxjn90dFSS1N/fz6ZBKKKmE/WbDQAkqRwbfAMolZGREV1++eWZXMsM9Sct8TPPw0xnH777N5YvX64NGzZk0lagXWMjUk0n6rcSAJAICCAXO3fu1O23397y9+0OP2kUwJXtb5gOv7e3V729veMBgW3Tpk266KKLWm4rkJUgCLa28r1WAgCmAQDkZsuWLXrmmWfaukZSpn/S3X/4cJ0jSX/9139NkSAUQUt1eloJACSmAQDkaN26dU0VCUpz559mvt8ID/kb4WCgt7dX999/f+p2Allrdfhfaj0AYBoAQG5GRkYyKxJk3/VHdfz23X7UkL80MTAw53zqU5/SnXfe2XY7gVa0OvwvtR4AMA0AIFe7d+/W+vXrY89JuvNPO9wvTc72d4n67IorrtCll14a21YgJy2X6W81AJCYBgCQs23btumRRx6Z9L7p7NNs5mM6/riEv7i7fknO0YHwNMGdd96phQsXJv9RQHaG1UaZ/nYCAKYBAOTua1/7ml544QXnZ0mFfaKe2514VKKfOc9eBmifZy8VNCgShA5ruviPrZ0AgGkAAB1x2WWX6dChQ7FD/vadflySn30n71rjbwt3/EnnnnnmmfqLv/iL5D8IyEZbu/S2EwBITAMA6IChoaHxIkFRQ/6m448a8g/f9cfN+Yfv7uPODY8ifOELX9DVV1/d3B8ING9Ybe7S224A8Ddtfh8AUtm5c6f+8i//ctL79g5+dqcfHgUId9Rxw/7hz8PnJl3nG9/4hpYuXZr4NwFtaGv4X2o/ADgspgEAdMjmzZv14x//WFLyJj5G1N181HnmHNd5USMCrnP/7M/+jCJByNN97V6g3QBAku7J4BoAkMq6dev0xhtvjA/5J63vTzPk7/pe0nC/qyaA/bpWq+nuu+9u5k8D0hpQk1v/umQRAOwg6xVAp4yMjOiqq66K7fxdd+ZJQ/7medIIQdpAore3V+effz6bBiEPmdx4ZxEAtFWJCACaNTg4qNtuuy12C9+4Wv5xXHfz9vOoYX97qsGuF7B69WotX768qTYACX6cxUUyCQCUwVwEADRj27Zteuqppya9Hx6ij5rLT1P6NyxqRCE81RC+3qZNmygShKxsVSP/rm1ZBQDUBADQcTfffLNefvllSZOT+OKy9O0kv6hlgGnn+tP8Xq1W05//+Z9TJAhZaGvtvy2rAEAiGRBAhwVBoDVr1ujtt99ONd9vPksqAmSPHrimEVyVBOOKBEnSrFmzdOutt6b6u4AIw2pz7b8tywAgkzkJAGjG0NCQNm7cmDjfHx4hCL/nOi9uV8Dw70WdGwTB+PPPfvazWr16dWQbgQSZ7j2dZQBwWI25CQDoqKeffloPPfRQ5Ofhufm4jj+8bDDuPPsxjVqtpnXr1mnRokWpvwNYMi2+l2UAIJEMCMCTzZs36/nnn5/wXpo79PD5UUFC1Os0d/7h9/7kT/6EIkFoVmbJf0bWAQDJgAC8Wbdund5++21Jk+/64+7Uk1YNmPddhYXC4jp+Y9asWdq4cWPyHwSclFnyn5F1ACCRDAjAk5GREV133XWp6vmb95KW8KUdEXAJgiAy8/+jH/2orr/++sRrAMo4+c/IIwD4MUtdAPgyODioe++9d/x1M9v9xpX/DT83zN19EATjHb7d8Yfv/u3v/+Ef/qEuuuii1H8butY38rhoHgHA4SAIbsnhugCQyrZt27Rz505J0Tv5pa3ql7SPgH3DYzp/Kb7jt9/74z/+Y/IBEGnsv69cVtmdksdFJfVJ+o+cro2SWbRoUWH2R9+0aZPvJqBDarWann76ac2fP3/C+0lD/mFxn4fv9O0AwHWdqNGEvXv36tZbb438LrraLcpphV1eAYDUWBHALhgAvFm4cOF4ueA0nX6zpYHtDjtt5x91/Z/+9KfaupWV1JjkDGWc/W+clsdFx/xKjcgFALw4ePCg/u3f/k1/8Ad/kKpznzp16vh59XrdeU4QBDr99NPHO/taraZ6ve48f3R0VFOnTp1w3ajfP+ecc/TOO+/o1VdfbeEvRUVtlfRMXhfPMwB4V9JiSefn+BsAEGvPnj0688wz9bGPfSyyUx8dHR3vxMPD9OHvmM6/mY7fnBN37ujoqC688ELt2bNHBw4caPfPRjWsVqMvzUUeSYC2v8j5+gCQaPPmzfrVr37l/Cxuwx/7ucnyt19HrXhKu0dA+PPe3l5df/31bBoESdqhRm2d3OQ5AiBJ+yVdImlezr8DALF+9rOf6ZJLLpnUudbrdU2dOjVxyN8cdhAQdUdvvx836mACBXuEoLe3V+eff77+7u/+rum/EZVyjRp9aG7yDgAk6aAawxgA4E0QBNqzZ4++8pWvSDo59G4P/bs663q9Pt7x1+v18aF/F9OpRwUU9nB/XD7Ahz70IZ122ml68cUX2/iLUWIDku7M+0c6EQD8So1IZkYHfgsAIu3fv18nTpzQxz/+8cQCP4YJANLM45tgIiqgmDp16vg1zPlRgcf555+vN954Q/v353oTiGJar0bfmatOBABSY7nhJR36LQCI9Pzzz+vCCy/UmWeeOf6eqwO27/iT1ufbHXvUNaPu/uOmET796U9rYGCA+gDdZVjSDZ34obyTAI2/IakFQFHceuut+vWvfz3pfbuKX1QpX1vc7oHh85K2I7bftxMDb7zxxrg/BdWTS9lfl06NAByv1+vvilEAAAVQr9c1ODioVatWTXrfDPfHzffby/yilgLa59pFgJpJCpSkD3zgA5ozZ86krY5RScPq0N2/1LkAQJL+b61W+y9x/0cBgE45ePCg3n77bX3+85+fkOlvF/iJuvs3c/hxnbqdF5AUKLjKBNvnzps3T4cOHdLrr7/e7p+NYlurDsz9G50MABgFAFAopkjQokWLJKnpAj9S9Bx+0jy/fb3w79nPzTnnnXeeXn75ZR08eLD1PxhFNqwO3v1L+e4F4FSr1U6Q0AKgSB5++GH19/fHnuNauhe1eiCp9n949UFSiWLz2ZEjR/Snf/qnJAVW0yo1iv90TKeSAMcFQbAq+SwA6Jzbb789MTHP5toe2E7wS0r4i9p+2PXbdrXA6dOna926dUl/DspnWB3u/KXOTgEY1AUAUChBEGhoaEgXX3zxpM9cc/hRBYPCewm4uHIDos4zuQD2OTNnztTUqVO1Z8+eZv9MFFdH5/4NHwGAJL0hqgMCKJD9+/dr+vTp+vjHPy7JPd8fJaqzjjovTW5A3MqBj3zkI3rjjTfYNKgahtXhuX/DVwDAKACAwnn++ee1aNEinX322ZN28gszn6UJEqKS/dKcFz7/yJEjmjp1qhYuXKiXXnqJfIDy83L3L/kLACRGAQAU0M9//nN96UtfkuTeDtgIb/frOjc8imDOiTrXzPXHBQnvvffeeOXB+fPna2BgoOW/Fd4NSNro68d9BgCMAgAonHq9rj179ujiiy9OXL5n3/VH5QW4lgy6lvnZ+whIk4OPI0eO6L333tP06dN15MgRSY0iQWeffbZ++ctftvlXw5NVynnHvzg+AwCJUQAABXTgwAGNjo7qk5/85IT3XUP0caMEaRP9XAWAwp3/9OnTx+/+33vvvfHPZs+erX//939n06Dy6ciOf3F8BwC/UqMw0DzP7QCACfbs2aPZs2frnHPOkRSdmJd20x+XcIDgmu83nb3p+O3O35xz3nnn6fXXX6dIULl8TtK7PhvQ8ToADowAACik73znO9q7d++k9+35evs9SYk1AKLqBbhMnz59/NEM+9vMyIAk/dEf/ZHYdK00tkqa/B9Wh/keAZAaEdAMSct8NwQAbPV6Xc8//7y++MUvjr+2P7OFVw1ETQ2kGR0wmf6mg4/r/M3jKaecojlz5pAPUA5fknTcdyOKEABI0v+R9F98NwIAwoIg0BtvvKHPfOYzzs/DQ/7tTg2EO/3wkL9hTweYx5kzZ+r9999n06Biu0XS//bdCKk4AcBxNUYC2CgIQOHs379fvb29+t3f/d3x99JuDGTOTVMAKNz5m8Q/+3OTCBhOBjQWLlxIPkBxDUu6wncjjCLkABhb1fgfBwAK57HHHtO//Mu/THo/bZVAI5w7YLiG+11D/+Yc12fm98gHKKxv+G6ArSgjAMYvJLHTBYBCeu655/S5z31OkiKX7xl2gSA7NyAq09+ez3fd2cflA4R/r16v67zzztPzzz/f9t+MzOyQ9F99N8JWtABgv6TFks733RAACKvX6+P5AFEJgfbUQJp9BMLFfVzL/KKWANrCGwxNnz5dtVpNr776ait/KrJ3iTwv+wsrWgAgNYoj3OK7EQDgcuDAAR09elQXXHCB83NTpjeuRLCU3LGHP48aGQhXJbR/6+yzz9a7777LpkH+bZX0Q9+NCCtiAMCyQACF9uqrr+qcc87R7NmzJ30W3kAoqvOPG86XNGEZYNzdv935u4KN/v5+vfbaa2wa5EmtVlO9Xi/Esr+wIiUB2u4ggQVAkX3nO9/Rvn37xl/bQ/1xiX5JzDlp5vzDvxuebjh69KimTZumFStWkBToSRAEqyQd9t0OlyKOAEjS8Xq9/j9FQiCAgqrX63rppZf02c9+dkKyn/ksLM36fruyX9xdf9weAobp/I8ePaqpU6dq5syZ2rNnT+t/MFrhdbe/JEUNACQSAgEUXBAE+s1vfqNPfOIT48l3UXP+dofuWt9vz/fHdfzhZD9pcsBhd/7GBz/4QZ04cYJNgzrLe73/OEUOACTpf4gKgQAKbP/+/Zo1a5bOOussSfF3/+HKfUZ4vt8lvBlR1OoCV+dvfPjDH9aBAwcoEtQZt0ja6bsRcYoeAByXtFtsGASgwH75y19q8eLF+sAHPjD+nl3PX4oe8k86x0iqOHj06FG99957kZ2/+b2PfOQjevnllyOrESITAyrBFHbRAwCpsWUwUwEACu2f/umf9PnPf965iU/UkL/d+cct86vX64kddlznb//ee++9p/7+fr344ovt/LmIt0qNaexCK0MAIFEbAEDB1et1vfXWW/r4xz8+qapf1JC/vb4/fI493x+VV3D06FFNmTIldtjfHl0wvzFt2jT19fWxaVA+tkp62Hcj0ihLAPCu2CwIQMEdOHBAp556qvr7+yVFV/WLCw7CmwzFzfebzj/8W+HfcW0eNGvWLB08eJB8gGwNS/pDFXDNv0tZAgCpMQpwiaR5vhsCAFFeffVVLVy4UDNnzpz0mWsL3zDT8Zu7/6ihf3vO3zXCYP9e1MqCuXPn6q233qJIUHaWS3rNdyPSKmohoCjrfTcAAJI8/vjj+s1vfiNpcmEfSeOPYeGiPq6CQuFh/vBr1++F2cWFfv/3fz/uT0F6WyU957sRzSjTCIDUSKpgKgBAodXrdf3rv/6rLrzwQkmalPBn343bSX7h4X7X+n7zfdedfzPFhsw5U6ZM0Zw5c9g0qD3DKtHQv1G2AEBiKgBACQRBoNHRUX3iE58YT/hzsZP84jL9TedvOn7X9ewgwyWqvHBfX5/ef/99Ng1qXamG/o0yBgCS9BOxKgBAwe3fv1+9vb2aO3du5Dl2sp8r49/M9RtxiYXhRL/weeb3XOfMnDlTb7/9NvkAzbtF0pO+G9GKsgYA74oCQQBKYN++fTrnnHMmFAmyh/3D5XzDnb+543cN+UuKLSSUZtWB8dvf/lZz5szRvn37KBKUXikK/kQpawAgUSAIQAnU63Xt27dPF1xwwXh2vrnTt+v5u5gOO26Nv11LICwcHLjOO3bsmH77299KauQDnHXWWeQDpFfoWv9JyhwASI29Aq6UNMN3QwAgShAEevPNN/V7v/d7E9b2x5X0te/6o+7sTacentN33flL7qTAKVOmaMqUKeNBwLRp03TqqaeSD5BslRojAKVV9gDguKRfqMRDMAC6w8GDB/X+++/rwx/+cOJdf5qO3949MMxVjjjM3Pmbw3bGGWeoXq9TJCjaDkn/1Xcj2lX2AEBiaSCAknj99de1cOFCnXHGGZM+M2V94zr+tBsHmc+jzjl27JjzfTvhcPbs2eQDONRqNdXr9SUq2ZI/l7IVAoryNyr5UAyA7vDkk086i/lMmzZt/LX9XNKkO3lXgR+7AFDcXf+xY8fU09Mz6bNwGyTp85//fMJf032CIFgq6bDvdmShCiMAUiMSY2kggMKr1+t67bXXxosESRNL9prXhj3sHzWXnzTcb5i5/vCQv/ksHJhMmTJFM2bM0P79hd/YrlNKs9FPGlUJACSWBgIoiSAIVK/XdfbZZ48P+4eX+bnm+6O2FY4b7pcmzveH2UmHrs9mzJhBPkDDgBrV/iqjSgGA1FgaOEPSMt8NAYA4+/fv1+zZs8fzAcIdsCvRL+ocV3GfY8eOacqUKbHz/Sb4iGJGBT70oQ/p8OHDXVskaGzev9RL/lyqFgBI0k5RKhhACezZs0fnnXfe+Jx+ePle1JB++M4/anlfXOcfVVvAfB6eEpgxY4befvvtrkwKrNfrSyW95LsdWatKEmDY6lqt5rsNAJBo586dkzr6pM4/aXlfnDSdfzgZUGokJl5wwQWx166oW1SyXf7SquIIgCS9W6/X/6eoDwCg4IIg0MGDB/XRj350/O4/blg+ab4/am2/lK7zj/oNMyrwgQ98oJuKBO2Q9J99NyIvVQ0AJOoDACiJgwcP6sSJE5o1a1bseeHKfmFmiV9U5y8pct7f3nfAxXxv+vTpOnr0aDfkAwxL+rIqsN4/SpUDAKmRtcl+AQAKb//+/Zo3b576+vomvG/nBUiTEwHtDP+enp4JUwD2XL6ruqBZARBVgMg+x/5s1qxZ3ZAP8AlJv/bdiDxVNQfAtkqNSA4ACu1v//Zvm8oHMHf8prBPuPO35/Jdw/7Tpk2LnBIw77nyASRVPR9glaS9vhuRt24IACTpIt8NAIAkQRBMSAq0q/q5qv9JJ6v7RYmb7zdH3HejgoNp06Zp0aJFkd8tsVvUmPuvvKpPARgUCQJQCkEQ6P333x/PBzBz/mYIvpn1/VFD+lHFh+xzJDk/txMJzVLECuUDVDrpL6xbAgCpUSSIpEAAhXfgwAHNmTNHfX19kzrguM5fil8lEF4F4Orc7fdc17FzBqRGfYBDhw5VIR9gWBVP+gvrpgBAaiQFUikQQOG9+uqr+tjHPqYpU6ZMeD/NTn7hO3dz1++q92+f4/pu+BquAOOss84q9X4BY5X+Kp/0F9ZtAYDUqBTIygAAhTc8PKyPfOQj43f94eV9plOWNGFIP9z5m7v+uJEBSbE1ApLqD/T09JR2v4CqVvpL0i1JgGFfFSsDABRcEAT6+7//+8gtfA3Taccl9EVl89urBeJWA7iMjo6OP5555pmaPXt25LkFtkoVrfSXpFsDgMOSFlEuGEDRDQ0NaXh4eNLQf5qqfnZgED7Pfh3V8acJLIzR0VGdddZZZQsCuibj36VbAwBJOhwEwXzfjQCAJIODgzp06NCE9+I6f/O5/WhLWxI4atRAanT4vb2944/GWWedFf2HFMvWsaNrneK7AQWwRNKg70YAQJxaraYvfvGLseckdezNnOMS7vTtR1sQBBoaGoptq2c71Bj672rdmAQYtl/UCABQcPV6XYcOHdK8efMiM/XDS/RsJgkwrvJf3CoBSZo6dep4W8yyP9fyv9NPP12nnHJKUesDDEhaqS5a7heFAKCBGgEACi8IAp1++uk644wzJn0WdWdvLwGMy+S3gwdXgDE6Ojqh4+/t7XV2/kEQqF6v6/TTT9fpp59etCBgWNJn1MgD63oEACdRIwBA4R04cEAzZsyYsGlQ3LC+uat3dezhu37zmavzNx2+ebQ7fxOYBEFg1tTLJFkfP368EEWCunWtfxwCgImoEQCg8Pbv3685c+ZIiu60JU3q+MPnxE0ZSCfv+u15/qghf/NZeGqgr6+vEPUB6vX6fHXBBj/N6OZVAFFWqYuXhQAoh5dffjn286T1/fZ5LuHs/ihmiN88upZXF2Bp4FLR+U/CCIDbD9XIB5jnuyEA4BIEgU6cOKEPfehDE96PS/azh/zj7vqnTp2qqVOnRmb5m9+35/nN0H/UCIHHqYCl6tJCP0kIAKJtl/T/iSAAQEEdPHhQvb29E5IC45L9wkP+4ZwAu8OPy/KXNN7xx51nggRJOuWUU2KvlxM6/xhMAUQ7LOlLaiQHAkAh7d69e0KRoLjiPvaoQHiEIKqwjy083G9EVVU175sRAjtxsQO6tsRvWhQCStanRp2ABZ7bAQBOtVpNn/70pyM/T1P8R5JzqN8wnbj9Oulc+9E2MjIS244MkMuVAiMAyQ5LWiQ2DwJQUEEQOJMCTT3/uM4/rtO3r2935Elr+13n2sFDzvuw0PmnRA5AOsclPSXpMjVqBQBAoQRBoNNOO02/8zu/M/5eXOU/afKcf1RxHzOPn1TYx64HII2vvZc0ce7fXjaYsVskPZL1RauKEYD09kq6SIwEACiooaEhvfPOO4k7/UXd9btq+ptHc8RxDfd30C3q8s19mkUA0ByCAACFtnv3bknptvCVooOB8Jy/ee4avo8a7o8KBg4fPqy+vr4spwJWic6/aSQBtqZP0k9E2WAABVSr1XTBBRdMeC9uTX9YVPJeGnHfOXy4UYK/r69v/HnSd1Jgzr9FjAC0hiWCAAorCAINDw9PeM/u/OMq/IUz+OPOs5/HTRHYnb3p/DNaEkjn3wZGANrDSACAwlq4cKHOPPPMCXf9cZX90t71bGo8ugAAB0RJREFUh89N8z3T6dvBQPiaTaLIT5sYAWiPGQkgAgVQOENDQ5Pu+tNMASTNzYdHCFydt+no7Q7fngJo9jdD6PwzwAhAdp6UtNJ3IwDAVqvVtHDhwsjPkzpy17lpRwuS7vrt6zaBzj8j1AHIzg/VqBHAdACAwqjX6zrllFMis/dNR26vybfX75vz7I1/zHXj2J1/X1+fjh8/HnmuuXbcNcfaNF/SS7E/jNQIALK1UwQBAAomCAJnEFCv18c73qiiPdLEjX/CwUHY4cOHdfz48Ql3/nGdv7luwrWH6/X6J8SWvpkiAMjeTknvqrGdMAAUQhAE6uvrG6/CFx7Gj9vNL2m7X6nR8Zttf5Pu/E2nHw4+Iq49IOkzkn7d4p+OCAQA+RhQYwOh1b4bAgDGwYMH1dfXl7jVr2F30kl3/Xann3Tnbzr9FLkEO9TIrYpPIkBLWAWQnx2Slua86QUANMXeiS/q36fwGv8oruS+pDX+4evFXH+rGuv86fxzQgCQr+eCIJgvSgcDKAi7YI+r800qABTFtdzPvmb42gmZ/7eMHcgRAUD+9qqxnTBVAwEUwsjISGznbwcJrmDAdeefUWU/qbHMj7r+HUAA0BmH1Uhi4T9qAIVgBwGuYMB1px6u5W/P9yet9Tei7vzHfo81/h1EEmBnsUIAQGEEQaAPfvCDzmQ/V9Lf6aef7lzmF3XttEmEOrnMjzX+HUQA0HmsEABQGMePH9cHP/jBxGQ/s3zQZPbHre2XlLbjlxoJ018Wy/w6jikAP3aoMdQ17LkdALpcEAQTVgakkSbLP2Uy4S0i098b9gLwq0/So2IPAQCezZ49e9J79pK+NHP8rr0CYtb5s5WvZ4wA+HVYjf8TsNwFgFf2KEC4s4/bxU/ShBUD4cRCR+c/LGm+6Py9IwAoBlPwAgC8CU8FhBP90u7qFzP0v1WNZdHU9C8ApgCKpV/SLkkLPLcDQJeq1WrODH/7vXBBnzRbA6sx0slS6AIhACge8gIAeGU69zRL/dJcKwgC1vcXEMsAi+e4pB+KegEAPDHr96OW+oW3Bo7ZxnegXq9/TqzvLyRyAIprq1gqCMCTqFLBhivhL+QWNSqgMt9fUAQAxfacGgkzzJsB8KqJXfyGRT3/UiAHoDxWSnrSdyMAdJ8mEv52SPqqKOxTCgQA5dIvabukZb4bAqD7JHT+FPYpGaYAymWvGnNqFA4C0FExnf+AKOxTSowAlNcSNUYDFnhuB4Duxdr+EmMZYHntl/SQpF4xJQCgs4YlLRd5SaXGCEA1LKnVaoNpinIAQJu2SrpDJPqVHgFAdfRJukvSBt8NAVBJw5JWi4p+lUEAUD3kBgDIGnP9FUQAUF0bJN3nuxEASm1Ajbt+qvlVEAFAtVE3AECruOuvOOoAVBt1AwA0a4ca6/rp/CuOAKA7bBWFOgDEGCv3u2rsYMi/CzAF0H1IEgQQxtK+LsQIQPd5TtI5YloAwMnh/ltE5991GAHobtQOALrTsFjT3/UYAehuh9WI/OersdwHQIWNzfPfosYoIJ1/lyMAgHRytcAqNe4MAFTP1iAIzhDZ/RjDFABcKCIEVMcONe76yezHBIwAwGWrJO4UgHIbkLRULOtDBEYAkIREQaBcBiStF3P8SEAAgLT61RhGJBAAimlA0j2i4BdSIgBAswgEgGIZlvQN0fED6JB+NRIFT3BwcHg5XpO0UgDgCYEAB0dnj9dExw+gQAgEODjyPX6hxl4eQCbIAUDW+iR9XY0s5AV+mwJUwlZJT4isfgAlslKNuxbfd04cHGU87lNjZA0ASmuJpCfl/x9UDo5CH7Va7YQaK2z6BAAVQp4AB4f7+IVI7APQBfrE9AAHxwkxzA+giy0RowIc3XWYu32G+QFAjApwVPgYm9vnbh8AEvRLum/sH00OjjIfzO2jsKgDgKJbKWmN+EcU5TEs6X41avOzDS8KiwAAZdEn6csiGEAxDYtOHyVDAIAyIhhAEQyLTh8AvDHJgxQa4ujE8ZoahXpI5kPpMQKAKhkfGajVaiuDIPDdHlTDgKTtkn4u6vGjQggAUGVLJH1W0mpJyzy3BSVRq9UUBMFWST+T9GNJhz03CQDQBjNVwPJCDtfxCzG0jy7DCAC6FaMD3W1Y0o/EXT66GAEA0GACgi+QP1BJA2MHHT4whgAAcOuX9GlJX5C0QtICr61BamNz+DvU6OxJ3AMiEAAA6fRJ+k8aGyWQ9EkRFBSFfXf/D2JNPpAKAQDQOhMUzFMjKFgm8gnyNCzpH9Xo6PeKzh5oCwEAkD1Tj6BfjcBgbq1WW0ZeQWrDanT0e9Xo7PeJYXwgcwQAQOf0SZqpRm5Bv6T5Y4/dNp0wLOktNYbtX1ejo9839h539ECHEAAAxWFPKZj16PPHHvslzZU0RwUMFsYS74bV6MTfVKMjf33sYzp4oIAIAIDyMiMKc9QIGgxXMZv5jvfMeeFO+fXwiaFz9o09viXpHbGkDgAAACiH/wf571IPvd+thQAAAABJRU5ErkJggg==;rounded=1;" vertex="1" parent="1">
          <mxGeometry x="200" y="370" width="100" height="100" as="geometry" />
        </mxCell>
        <mxCell id="aOcAcyVCXec-WAdpEkdR-19" value="Frontend&lt;div&gt;App&lt;/div&gt;" style="text;html=1;align=center;verticalAlign=middle;whiteSpace=wrap;rounded=1;" vertex="1" parent="1">
          <mxGeometry x="220" y="468" width="60" height="30" as="geometry" />
        </mxCell>
        <mxCell id="aOcAcyVCXec-WAdpEkdR-20" value="" style="endArrow=classic;startArrow=classic;html=1;rounded=1;entryX=0;entryY=0.75;entryDx=0;entryDy=0;exitX=1.01;exitY=0.6;exitDx=0;exitDy=0;exitPerimeter=0;" edge="1" parent="1" source="aOcAcyVCXec-WAdpEkdR-18" target="aOcAcyVCXec-WAdpEkdR-9">
          <mxGeometry width="50" height="50" relative="1" as="geometry">
            <mxPoint x="590" y="580" as="sourcePoint" />
            <mxPoint x="640" y="530" as="targetPoint" />
            <Array as="points" />
          </mxGeometry>
        </mxCell>
        <mxCell id="aOcAcyVCXec-WAdpEkdR-21" value="HTTP&lt;div&gt;protocol&lt;/div&gt;" style="text;html=1;align=center;verticalAlign=middle;whiteSpace=wrap;rounded=1;" vertex="1" parent="1">
          <mxGeometry x="320" y="392.42" width="60" height="30" as="geometry" />
        </mxCell>
        <mxCell id="aOcAcyVCXec-WAdpEkdR-36" value="" style="endArrow=none;dashed=1;html=1;dashPattern=1 3;strokeWidth=2;rounded=1;" edge="1" parent="1">
          <mxGeometry width="50" height="50" relative="1" as="geometry">
            <mxPoint x="180" y="600" as="sourcePoint" />
            <mxPoint x="180" y="240" as="targetPoint" />
          </mxGeometry>
        </mxCell>
        <mxCell id="aOcAcyVCXec-WAdpEkdR-37" value="" style="endArrow=none;dashed=1;html=1;dashPattern=1 3;strokeWidth=2;rounded=1;" edge="1" parent="1">
          <mxGeometry width="50" height="50" relative="1" as="geometry">
            <mxPoint x="180" y="600" as="sourcePoint" />
            <mxPoint x="800" y="600" as="targetPoint" />
          </mxGeometry>
        </mxCell>
        <mxCell id="aOcAcyVCXec-WAdpEkdR-38" value="" style="endArrow=none;dashed=1;html=1;dashPattern=1 3;strokeWidth=2;rounded=1;" edge="1" parent="1">
          <mxGeometry width="50" height="50" relative="1" as="geometry">
            <mxPoint x="800" y="600" as="sourcePoint" />
            <mxPoint x="800" y="240" as="targetPoint" />
          </mxGeometry>
        </mxCell>
        <mxCell id="aOcAcyVCXec-WAdpEkdR-40" value="" style="endArrow=none;dashed=1;html=1;dashPattern=1 3;strokeWidth=2;rounded=1;" edge="1" parent="1">
          <mxGeometry width="50" height="50" relative="1" as="geometry">
            <mxPoint x="180" y="240" as="sourcePoint" />
            <mxPoint x="800" y="240" as="targetPoint" />
          </mxGeometry>
        </mxCell>
        <mxCell id="aOcAcyVCXec-WAdpEkdR-41" value="&lt;font style=&quot;font-size: 18px;&quot;&gt;Local&lt;/font&gt;" style="text;html=1;align=center;verticalAlign=middle;whiteSpace=wrap;rounded=1;" vertex="1" parent="1">
          <mxGeometry x="190" y="250" width="100" height="50" as="geometry" />
        </mxCell>
        <mxCell id="aOcAcyVCXec-WAdpEkdR-42" value="" style="endArrow=none;dashed=1;html=1;dashPattern=1 3;strokeWidth=2;rounded=1;" edge="1" parent="1">
          <mxGeometry width="50" height="50" relative="1" as="geometry">
            <mxPoint x="379.5" y="210" as="sourcePoint" />
            <mxPoint x="380" y="80" as="targetPoint" />
          </mxGeometry>
        </mxCell>
        <mxCell id="aOcAcyVCXec-WAdpEkdR-43" value="" style="endArrow=none;dashed=1;html=1;dashPattern=1 3;strokeWidth=2;rounded=1;" edge="1" parent="1">
          <mxGeometry width="50" height="50" relative="1" as="geometry">
            <mxPoint x="389.5" y="210" as="sourcePoint" />
            <mxPoint x="619.5" y="210" as="targetPoint" />
          </mxGeometry>
        </mxCell>
        <mxCell id="aOcAcyVCXec-WAdpEkdR-44" value="" style="endArrow=none;dashed=1;html=1;dashPattern=1 3;strokeWidth=2;rounded=1;" edge="1" parent="1">
          <mxGeometry width="50" height="50" relative="1" as="geometry">
            <mxPoint x="619.5" y="210" as="sourcePoint" />
            <mxPoint x="620" y="70" as="targetPoint" />
          </mxGeometry>
        </mxCell>
        <mxCell id="aOcAcyVCXec-WAdpEkdR-45" value="" style="endArrow=none;dashed=1;html=1;dashPattern=1 3;strokeWidth=2;rounded=1;" edge="1" parent="1">
          <mxGeometry width="50" height="50" relative="1" as="geometry">
            <mxPoint x="380" y="70" as="sourcePoint" />
            <mxPoint x="620" y="70" as="targetPoint" />
          </mxGeometry>
        </mxCell>
        <mxCell id="aOcAcyVCXec-WAdpEkdR-47" value="&lt;font style=&quot;font-size: 18px;&quot;&gt;Internet&lt;/font&gt;" style="text;html=1;align=center;verticalAlign=middle;whiteSpace=wrap;rounded=1;" vertex="1" parent="1">
          <mxGeometry x="402" y="84" width="50.5" height="30" as="geometry" />
        </mxCell>
        <mxCell id="aOcAcyVCXec-WAdpEkdR-48" value="" style="aspect=fixed;html=1;dashed=0;whitespace=wrap;verticalLabelPosition=bottom;verticalAlign=top;fillColor=#2875E2;strokeColor=#ffffff;points=[[0.005,0.63,0],[0.1,0.2,0],[0.9,0.2,0],[0.5,0,0],[0.995,0.63,0],[0.72,0.99,0],[0.5,1,0],[0.28,0.99,0]];shape=mxgraph.kubernetes.icon2;kubernetesLabel=1;prIcon=api;rounded=1;" vertex="1" parent="1">
          <mxGeometry x="460" y="80" width="80" height="76.8" as="geometry" />
        </mxCell>
        <mxCell id="aOcAcyVCXec-WAdpEkdR-49" value="Government Sensor Data API" style="text;html=1;align=center;verticalAlign=middle;whiteSpace=wrap;rounded=1;" vertex="1" parent="1">
          <mxGeometry x="470" y="166.8" width="60" height="30" as="geometry" />
        </mxCell>
        <mxCell id="aOcAcyVCXec-WAdpEkdR-50" value="" style="endArrow=classic;startArrow=classic;html=1;rounded=1;exitX=0.5;exitY=0;exitDx=0;exitDy=0;" edge="1" parent="1" source="aOcAcyVCXec-WAdpEkdR-9">
          <mxGeometry width="50" height="50" relative="1" as="geometry">
            <mxPoint x="640" y="340" as="sourcePoint" />
            <mxPoint x="500" y="210" as="targetPoint" />
          </mxGeometry>
        </mxCell>
        <mxCell id="aOcAcyVCXec-WAdpEkdR-52" value="HTTP&lt;div&gt;protocol&lt;/div&gt;" style="text;html=1;align=center;verticalAlign=middle;whiteSpace=wrap;rounded=1;" vertex="1" parent="1">
          <mxGeometry x="510" y="260" width="60" height="30" as="geometry" />
        </mxCell>
        <mxCell id="aOcAcyVCXec-WAdpEkdR-53" value="" style="shape=actor;whiteSpace=wrap;html=1;sketch=1;hachureGap=4;jiggle=2;curveFitting=1;fontFamily=Architects Daughter;fontSource=https%3A%2F%2Ffonts.googleapis.com%2Fcss%3Ffamily%3DArchitects%2BDaughter;" vertex="1" parent="1">
          <mxGeometry x="20" y="380.29" width="60" height="92.58" as="geometry" />
        </mxCell>
        <mxCell id="aOcAcyVCXec-WAdpEkdR-54" value="" style="shape=actor;whiteSpace=wrap;html=1;sketch=1;hachureGap=4;jiggle=2;curveFitting=1;fontFamily=Architects Daughter;fontSource=https%3A%2F%2Ffonts.googleapis.com%2Fcss%3Ffamily%3DArchitects%2BDaughter;" vertex="1" parent="1">
          <mxGeometry x="50" y="392.42" width="60" height="92.58" as="geometry" />
        </mxCell>
        <mxCell id="aOcAcyVCXec-WAdpEkdR-56" value="" style="endArrow=classic;html=1;rounded=0;sketch=1;hachureGap=4;jiggle=2;curveFitting=1;fontFamily=Architects Daughter;fontSource=https%3A%2F%2Ffonts.googleapis.com%2Fcss%3Ffamily%3DArchitects%2BDaughter;" edge="1" parent="1">
          <mxGeometry width="50" height="50" relative="1" as="geometry">
            <mxPoint x="120" y="440" as="sourcePoint" />
            <mxPoint x="190" y="440" as="targetPoint" />
            <Array as="points">
              <mxPoint x="160" y="440" />
            </Array>
          </mxGeometry>
        </mxCell>
        <mxCell id="aOcAcyVCXec-WAdpEkdR-60" value="Text" style="text;html=1;align=center;verticalAlign=middle;whiteSpace=wrap;rounded=0;fontFamily=Architects Daughter;fontSource=https%3A%2F%2Ffonts.googleapis.com%2Fcss%3Ffamily%3DArchitects%2BDaughter;" vertex="1" parent="1">
          <mxGeometry x="630" y="300" width="60" height="30" as="geometry" />
        </mxCell>
        <mxCell id="aOcAcyVCXec-WAdpEkdR-62" value="&lt;font style=&quot;font-size: 18px;&quot;&gt;Users&lt;/font&gt;" style="text;html=1;align=center;verticalAlign=middle;whiteSpace=wrap;rounded=0;fontFamily=Architects Daughter;fontSource=https%3A%2F%2Ffonts.googleapis.com%2Fcss%3Ffamily%3DArchitects%2BDaughter;" vertex="1" parent="1">
          <mxGeometry x="30" y="490" width="60" height="30" as="geometry" />
        </mxCell>
      </root>
    </mxGraphModel>
  </diagram>
</mxfile>
